<svg width="123" height="39" viewBox="0 0 123 39" fill="none" xmlns="http://www.w3.org/2000/svg">
<g clip-path="url(#clip0_1391_1348)">
<path d="M9.24725 9.59403C3.3679 9.59403 0 13.4752 0 18.522V30.0563C0 35.1023 3.3679 38.9843 9.30456 38.9843C15.2979 38.9843 18.4372 35.1023 18.4372 30.0563V28.5035C18.4387 28.3778 18.3924 28.2563 18.3076 28.1636C18.2228 28.0709 18.1059 28.0139 17.9806 28.0042H14.2128C13.8995 27.9998 13.5973 28.1199 13.3725 28.3382C13.1478 28.5565 13.019 28.8552 13.0144 29.1685V30.0563C13.0144 32.1633 11.816 34.0489 9.30456 34.0489C8.78093 34.065 8.25968 33.972 7.77401 33.7755C7.28834 33.5791 6.84891 33.2837 6.48371 32.9081C6.11852 32.5325 5.83558 32.0849 5.65292 31.5939C5.47026 31.1029 5.39188 30.5792 5.42278 30.0563V18.522C5.37451 18.0057 5.43229 17.485 5.59255 16.9919C5.75282 16.4988 6.0122 16.0436 6.35476 15.6543C6.69732 15.2651 7.11583 14.95 7.5846 14.7283C8.05337 14.5067 8.56249 14.3832 9.08071 14.3654C9.59894 14.3477 10.1153 14.4361 10.5981 14.6251C11.081 14.8142 11.5201 15.1 11.8884 15.4649C12.2568 15.8298 12.5467 16.2661 12.7404 16.7472C12.934 17.2282 13.0272 17.7437 13.0144 18.2621V19.2983C13.019 19.6116 13.1478 19.9102 13.3725 20.1286C13.5973 20.3469 13.8995 20.467 14.2128 20.4626H17.9806C18.0399 20.4642 18.099 20.454 18.1543 20.4324C18.2096 20.4109 18.26 20.3785 18.3025 20.3372C18.3451 20.2958 18.3789 20.2463 18.4021 20.1917C18.4252 20.1371 18.4371 20.0783 18.4371 20.019V18.7435C18.477 17.5277 18.2663 16.3168 17.8181 15.186C17.3698 14.0552 16.6936 13.0288 15.8316 12.1705C14.9696 11.3123 13.9402 10.6407 12.8074 10.1974C11.6747 9.75417 10.4628 9.54878 9.24725 9.59403Z" fill="#17A6DC"/>
<path d="M52.2832 9.59378C51.2586 9.5968 50.2462 9.81563 49.3119 10.236C48.3775 10.6564 47.5422 11.2689 46.8604 12.0336C46.7464 12.2 46.4611 12.0886 46.4611 11.8671V1.16436C46.4566 0.851077 46.3277 0.552439 46.103 0.334115C45.8783 0.11579 45.576 -0.00434573 45.2627 0.000121051H42.1788C41.8657 -0.00435952 41.5636 0.115701 41.339 0.333903C41.1144 0.552104 40.9856 0.850578 40.981 1.16369V15.8416C40.9816 16.0281 40.9396 16.2122 40.8583 16.38C40.777 16.5479 40.6586 16.695 40.5119 16.8102C40.0926 17.1351 39.6765 17.4357 39.2635 17.712C39.2376 17.7289 39.2078 17.7385 39.1769 17.74C39.1461 17.7415 39.1154 17.7348 39.088 17.7205C39.0606 17.7063 39.0375 17.685 39.021 17.6589C39.0045 17.6328 38.9952 17.6028 38.9941 17.572C38.7073 13.2553 35.6566 9.59381 30.1206 9.59381C24.5265 9.59381 20.5881 13.4749 20.5881 18.5218C20.5927 18.8349 20.7214 19.134 20.946 19.3522C21.1706 19.5704 21.4727 19.6905 21.7858 19.686H24.8124C25.1257 19.6905 25.4279 19.5703 25.6527 19.352C25.8774 19.1337 26.0062 18.835 26.0108 18.5217V18.0782C25.9917 17.5707 26.0776 17.0647 26.263 16.592C26.4484 16.1192 26.7294 15.6898 27.0883 15.3306C27.4473 14.9714 27.8766 14.6901 28.3492 14.5044C28.8219 14.3187 29.3278 14.2326 29.8353 14.2514C30.3399 14.2337 30.8426 14.321 31.3117 14.5079C31.7807 14.6947 32.2058 14.977 32.56 15.3368C32.9141 15.6966 33.1897 16.1261 33.3692 16.598C33.5486 17.0699 33.6281 17.5739 33.6025 18.0782V19.7416C33.5919 19.8615 33.5491 19.9762 33.4788 20.0738C33.4084 20.1713 33.3129 20.248 33.2025 20.2958L25.8395 22.5693C23.9531 23.0845 22.2932 24.2161 21.1243 25.7838C19.9553 27.3515 19.3445 29.2652 19.389 31.2202C19.4463 35.9342 23.0995 38.984 27.6658 38.984C28.8086 39.0596 29.9531 38.8628 31.005 38.4097C32.057 37.9566 32.9863 37.2602 33.7164 36.3777C33.7399 36.3427 33.7727 36.315 33.8111 36.2977C33.8496 36.2805 33.8921 36.2744 33.9338 36.2802C33.9756 36.286 34.0148 36.3035 34.0471 36.3306C34.0794 36.3577 34.1034 36.3933 34.1163 36.4334L34.5729 37.9304C34.6189 38.0601 34.704 38.1724 34.8164 38.2518C34.9288 38.3313 35.0631 38.3739 35.2007 38.374H37.8268C38.1401 38.3784 38.4423 38.2583 38.667 38.04C38.8918 37.8218 39.0206 37.5231 39.0252 37.2099V23.3276C39.0266 23.1057 39.0876 22.8883 39.2017 22.6979C39.3157 22.5076 39.4788 22.3514 39.6738 22.2456C40.0183 22.0549 40.3642 21.8526 40.7115 21.6388C40.738 21.622 40.7685 21.6126 40.7998 21.6116C40.8311 21.6106 40.8621 21.618 40.8896 21.633C40.9171 21.648 40.9401 21.6702 40.9562 21.6971C40.9723 21.724 40.9808 21.7547 40.981 21.786V37.2099C40.9857 37.5231 41.1145 37.8217 41.3392 38.04C41.5639 38.2583 41.8662 38.3784 42.1794 38.374H45.4907C45.6143 38.3706 45.733 38.3246 45.8267 38.2438C45.9203 38.163 45.9832 38.0522 46.0045 37.9304L46.2325 36.4334C46.2898 36.2113 46.5185 36.1556 46.6324 36.3221C47.3271 37.1464 48.1917 37.811 49.1669 38.2704C50.1422 38.7299 51.2051 38.9733 52.2831 38.984C53.35 39.0233 54.4135 38.8423 55.4073 38.4522C56.4011 38.0621 57.3038 37.4714 58.0591 36.7168C58.8144 35.9623 59.406 35.0602 59.7971 34.0668C60.1881 33.0734 60.3702 32.0101 60.332 30.9431V17.634C60.3701 16.5671 60.188 15.5038 59.7969 14.5105C59.4058 13.5172 58.8142 12.6151 58.0589 11.8607C57.3036 11.1062 56.4009 10.5155 55.4072 10.1255C54.4135 9.73547 53.35 9.55446 52.2832 9.59378ZM33.6025 29.8339C33.6025 31.9416 31.4329 34.3815 28.5223 34.3815H28.4076C25.9535 34.3815 24.8118 32.5516 24.8118 30.4996C24.8139 29.5727 25.1232 28.6726 25.6912 27.9402C26.2592 27.2077 27.0539 26.6841 27.9511 26.4513C29.2647 26.0262 30.9133 25.6008 32.3573 25.2254C32.5045 25.1872 32.6584 25.1833 32.8074 25.2138C32.9563 25.2444 33.0963 25.3087 33.2165 25.4018C33.3367 25.4948 33.434 25.6142 33.5009 25.7508C33.5678 25.8873 33.6026 26.0373 33.6025 26.1894V29.8339ZM54.7946 30.6104C54.7537 31.6215 54.3187 32.5764 53.5826 33.2708C52.8465 33.9651 51.8679 34.3438 50.8562 34.3257C48.7446 34.3257 46.4611 32.7179 46.4611 29.5011V19.1316C46.4611 15.8597 48.7446 14.307 50.8562 14.307C51.8593 14.2864 52.8312 14.6567 53.5662 15.3398C54.3012 16.0228 54.7417 16.9649 54.7946 17.9669V30.6104Z" fill="#17A6DC"/>
<path d="M94.0566 9.53906C92.8807 9.56373 91.7267 9.86222 90.6864 10.4109C89.646 10.9595 88.7479 11.7431 88.0633 12.6995C87.9487 12.866 87.6634 12.7552 87.6061 12.5887L87.4348 10.6481C87.4016 10.5373 87.3339 10.4399 87.2417 10.37C87.1494 10.3001 87.0373 10.2615 86.9216 10.2596H83.8956C83.5973 10.2553 83.3095 10.3697 83.0955 10.5776C82.8815 10.7855 82.7589 11.0699 82.7545 11.3682V15.498C82.7549 15.68 82.7149 15.8598 82.6374 16.0244C82.5599 16.1891 82.4469 16.3345 82.3064 16.4502C81.8734 16.8022 81.4443 17.1274 81.019 17.4259C80.9936 17.4433 80.964 17.4536 80.9333 17.4558C80.9026 17.458 80.8718 17.452 80.8441 17.4385C80.8165 17.425 80.7928 17.4044 80.7757 17.3788C80.7586 17.3532 80.7485 17.3236 80.7465 17.2928C80.3485 13.0989 77.31 9.59471 71.8934 9.59471C66.2993 9.59471 62.3608 13.4759 62.3608 18.5227C62.3655 18.836 62.4943 19.1346 62.719 19.3529C62.9437 19.5713 63.246 19.6914 63.5592 19.687H66.5852C66.8985 19.6914 67.2007 19.5712 67.4254 19.3529C67.6501 19.1346 67.779 18.836 67.7836 18.5227V18.0792C67.7646 17.5717 67.8504 17.0658 68.0359 16.593C68.2213 16.1203 68.5023 15.6909 68.8613 15.3317C69.2202 14.9725 69.6495 14.6912 70.1221 14.5055C70.5947 14.3198 71.1006 14.2336 71.6081 14.2524C72.1127 14.2347 72.6154 14.322 73.0844 14.5089C73.5535 14.6957 73.9785 14.978 74.3327 15.3378C74.6869 15.6976 74.9625 16.1271 75.1419 16.599C75.3214 17.0709 75.4008 17.5749 75.3752 18.0792V19.7426C75.3647 19.8624 75.322 19.977 75.2517 20.0746C75.1815 20.1721 75.0862 20.2489 74.976 20.2968L67.6123 22.5703C65.7259 23.0856 64.0662 24.2171 62.8974 25.7849C61.7285 27.3526 61.1178 29.2663 61.1624 31.2212C61.2191 35.9352 64.8723 38.985 69.4392 38.985C70.5821 39.0606 71.7265 38.8637 72.7785 38.4106C73.8304 37.9575 74.7597 37.2611 75.4899 36.3787C75.5132 36.3437 75.546 36.316 75.5844 36.2987C75.6228 36.2815 75.6653 36.2754 75.707 36.2812C75.7487 36.287 75.7879 36.3045 75.8201 36.3316C75.8523 36.3587 75.8762 36.3943 75.8891 36.4344L76.3456 37.9314C76.3917 38.0611 76.4767 38.1734 76.5892 38.2528C76.7016 38.3323 76.8359 38.3749 76.9735 38.375H79.5996C79.9129 38.3794 80.2151 38.2593 80.4398 38.041C80.6645 37.8227 80.7934 37.5241 80.798 37.2109V23.0868C80.7993 22.8687 80.8581 22.6549 80.9685 22.4668C81.079 22.2788 81.2371 22.1233 81.4269 22.0159C81.777 21.8142 82.1287 21.6 82.4821 21.3734C82.5084 21.3559 82.539 21.3459 82.5706 21.3444C82.6022 21.3429 82.6336 21.35 82.6615 21.3648C82.6894 21.3797 82.7128 21.4018 82.7291 21.4289C82.7455 21.456 82.7543 21.4869 82.7545 21.5185V37.2109C82.7591 37.5241 82.888 37.8227 83.1127 38.041C83.3374 38.2593 83.6396 38.3794 83.9529 38.3749H87.0362C87.3493 38.3794 87.6513 38.2594 87.8759 38.0412C88.1005 37.823 88.2293 37.5246 88.2339 37.2115V19.0769C88.2339 15.8607 90.5174 14.2523 92.6296 14.2523C94.7411 14.2523 96.568 15.8606 96.568 18.7441V37.2108C96.5726 37.5241 96.7015 37.8227 96.9262 38.041C97.1509 38.2593 97.4532 38.3794 97.7664 38.3749H101.648C101.774 38.3653 101.89 38.3083 101.975 38.2156C102.06 38.1229 102.106 38.0014 102.105 37.8757V18.1342C102.105 13.698 98.9082 9.53906 94.0566 9.53906ZM75.3752 29.8349C75.3752 31.9425 73.2064 34.3825 70.295 34.3825H70.1811C67.7263 34.3825 66.5852 32.5526 66.5852 30.5005C66.5872 29.5736 66.8964 28.6735 67.4645 27.941C68.0325 27.2085 68.8273 26.685 69.7245 26.4523C71.0375 26.0272 72.6863 25.6018 74.1301 25.2265C74.2773 25.1883 74.4312 25.1843 74.5802 25.2148C74.7291 25.2454 74.8691 25.3097 74.9893 25.4027C75.1095 25.4958 75.2068 25.6152 75.2737 25.7517C75.3406 25.8882 75.3753 26.0383 75.3752 26.1903V29.8349Z" fill="#17A6DC"/>
<path d="M113.873 9.59375C108.278 9.59375 104.34 13.4749 104.34 18.5217C104.345 18.8348 104.473 19.134 104.698 19.3522C104.923 19.5704 105.225 19.6904 105.538 19.686H108.564C108.878 19.6904 109.18 19.5703 109.405 19.3519C109.629 19.1336 109.758 18.835 109.763 18.5217V18.0782C109.744 17.5707 109.83 17.0647 110.015 16.592C110.2 16.1192 110.481 15.6898 110.84 15.3306C111.199 14.9713 111.629 14.6901 112.101 14.5044C112.574 14.3187 113.08 14.2326 113.587 14.2514C114.092 14.2337 114.595 14.321 115.064 14.5079C115.533 14.6947 115.958 14.977 116.312 15.3368C116.666 15.6966 116.942 16.1261 117.121 16.598C117.301 17.0699 117.38 17.5739 117.354 18.0782V19.7416C117.344 19.8615 117.301 19.9762 117.231 20.0738C117.16 20.1713 117.065 20.248 116.954 20.2958L109.591 22.5693C107.705 23.0845 106.045 24.2161 104.876 25.7838C103.707 27.3515 103.096 29.2652 103.141 31.2202C103.198 35.9342 106.851 38.984 111.418 38.984C112.561 39.0596 113.705 38.8628 114.757 38.4097C115.809 37.9566 116.738 37.2602 117.468 36.3777C117.492 36.3427 117.525 36.315 117.563 36.2977C117.602 36.2805 117.644 36.2744 117.686 36.2802C117.728 36.286 117.767 36.3035 117.799 36.3306C117.831 36.3577 117.855 36.3933 117.868 36.4334L118.325 37.9304C118.371 38.0601 118.456 38.1724 118.568 38.2518C118.681 38.3313 118.815 38.3739 118.953 38.374H121.579C121.892 38.3784 122.194 38.2583 122.419 38.04C122.644 37.8218 122.773 37.5231 122.777 37.2099V18.244C122.777 13.6413 119.695 9.59375 113.873 9.59375ZM117.354 29.8339C117.354 31.9416 115.185 34.3815 112.274 34.3815H112.16C109.705 34.3815 108.564 32.5516 108.564 30.4995C108.566 29.5727 108.875 28.6726 109.443 27.9402C110.011 27.2077 110.806 26.6841 111.703 26.4513C113.017 26.0262 114.665 25.6008 116.109 25.2254C116.256 25.1872 116.41 25.1832 116.559 25.2138C116.708 25.2444 116.848 25.3087 116.968 25.4017C117.089 25.4948 117.186 25.6142 117.253 25.7507C117.32 25.8873 117.355 26.0373 117.354 26.1893V29.8339Z" fill="#17A6DC"/>
<path d="M120.835 9.60026H120.599V8.61369H120.184V8.39844H121.251V8.61369H120.835V9.60026ZM121.601 9.60026H121.368V8.39844H121.727L122.067 9.32818L122.405 8.39844H122.764V9.60026H122.531V8.68243L122.19 9.60026H121.942L121.601 8.68243V9.60026Z" fill="white"/>
</g>
<defs>
<clipPath id="clip0_1391_1348">
<rect width="123" height="39" fill="white"/>
</clipPath>
</defs>
</svg>
