<?xml version="1.0" encoding="UTF-8"?>
<svg id="a" data-name="Layer 1" xmlns="http://www.w3.org/2000/svg" width="150" height="150" viewBox="0 0 150 150">
  <path d="M98.52,101.922c-2.614,0-5.157.12-7.595.346-2.096.194-4.116.467-6.038.811-1.474.263-2.89.568-4.24.91-1.241.315-2.425.661-3.546,1.036-1.519.508-2.921,1.07-4.189,1.677-4.778,2.288-12.539,3.369-19.569,2.341-2.81-.411-5.848-.635-9.019-.635-12.466,0-22.885,3.461-25.496,8.091,2.799,5.535,15.753,12.205,54.559,10.584,28.331-1.184,54.241-5.861,57.954-14.642-2.65-6.948-16.427-10.518-32.82-10.518Z" fill="#d5d5d5" stroke-width="0"/>
  <path d="M98.52,97.171c-2.614,0-5.157.12-7.595.346-2.096.194-4.116.467-6.038.811-1.474.263-2.89.568-4.24.91-1.241.315-2.425.661-3.546,1.036-1.519.508-2.921,1.07-4.189,1.677-4.778,2.288-12.539,3.369-19.569,2.341-2.81-.411-5.848-.635-9.019-.635-14.433,0-26.133,4.638-26.133,10.36s10.311,14.941,55.195,13.066c30.485-1.274,58.184-6.589,58.421-16.714.204-8.711-14.903-13.197-33.287-13.197Z" fill="none" stroke="#4a4a4a" stroke-linecap="round" stroke-linejoin="round" stroke-width="2"/>
  <path d="M49.712,108.628c-1.738-.145-3.541-.221-5.388-.221-12.426,0-22.826,3.438-25.478,8.046" fill="none" stroke="#4a4a4a" stroke-linecap="round" stroke-linejoin="round" stroke-width="2"/>
  <path d="M77.16,105.005c-1.542.514-2.964,1.082-4.249,1.697-4.778,2.288-12.539,3.369-19.569,2.341" fill="none" stroke="#4a4a4a" stroke-linecap="round" stroke-linejoin="round" stroke-width="2"/>
  <path d="M131.347,112.429c-2.657-6.944-16.44-10.507-32.827-10.507-2.614,0-5.157.12-7.595.346" fill="none" stroke="#4a4a4a" stroke-linecap="round" stroke-linejoin="round" stroke-width="2"/>
  <path d="M69.182,103.327v-4.667c0-2.237,1.814-4.051,4.051-4.051h0c2.237,0,4.051,1.814,4.051,4.051v12.042" fill="none" stroke="#4a4a4a" stroke-linecap="round" stroke-linejoin="round" stroke-width="2"/>
  <path d="M80.502,99.166v-4.667c0-2.237,1.814-4.051,4.051-4.051h0c2.237,0,4.051,1.814,4.051,4.051v12.042" fill="none" stroke="#4a4a4a" stroke-linecap="round" stroke-linejoin="round" stroke-width="2"/>
  <line x1="77.284" y1="103.28" x2="88.604" y2="100.2" fill="none" stroke="#4a4a4a" stroke-linecap="round" stroke-linejoin="round" stroke-width="2"/>
  <line x1="77.284" y1="107.176" x2="88.604" y2="104.096" fill="none" stroke="#4a4a4a" stroke-linecap="round" stroke-linejoin="round" stroke-width="2"/>
  <path d="M91.826,115.416c1.549,0,1.549,1.117,3.097,1.117s1.55-1.117,3.101-1.117,1.551,1.117,3.101,1.117,1.551-1.117,3.102-1.117,1.554,1.117,3.107,1.117,1.554-1.117,3.107-1.117" fill="none" stroke="#4a4a4a" stroke-linecap="round" stroke-linejoin="round" stroke-width="2"/>
  <path d="M50.034,118.468c1.549,0,1.549,1.117,3.097,1.117s1.55-1.117,3.101-1.117,1.551,1.117,3.101,1.117,1.551-1.117,3.102-1.117,1.554,1.117,3.107,1.117,1.554-1.117,3.107-1.117" fill="none" stroke="#4a4a4a" stroke-linecap="round" stroke-linejoin="round" stroke-width="2"/>
  <path d="M28.614,116.385c.942,0,.942.68,1.885.68s.944-.68,1.887-.68.942.68,1.884.68.944-.68,1.889-.68.946.68,1.892.68.946-.68,1.892-.68" fill="none" stroke="#4a4a4a" stroke-linecap="round" stroke-linejoin="round" stroke-width="2"/>
  <path d="M69.684,111.259c.942,0,.942.68,1.885.68s.944-.68,1.887-.68.942.68,1.884.68.944-.68,1.889-.68.946.68,1.892.68.946-.68,1.892-.68" fill="none" stroke="#4a4a4a" stroke-linecap="round" stroke-linejoin="round" stroke-width="2"/>
  <path d="M77.641,120.745c.942,0,.942.68,1.885.68s.944-.68,1.887-.68.942.68,1.884.68.944-.68,1.889-.68.946.68,1.892.68.946-.68,1.892-.68" fill="none" stroke="#4a4a4a" stroke-linecap="round" stroke-linejoin="round" stroke-width="2"/>
  <path d="M107.986,108.067c.942,0,.942.68,1.885.68s.944-.68,1.887-.68.942.68,1.884.68.944-.68,1.889-.68.946.68,1.892.68.946-.68,1.892-.68" fill="none" stroke="#4a4a4a" stroke-linecap="round" stroke-linejoin="round" stroke-width="2"/>
  <g>
    <polygon points="61.979 48.992 41.05 69.439 51.066 69.439 51.066 80.865 63.621 80.865 63.621 48.992 61.979 48.992" fill="#d5d5d5" stroke-width="0"/>
    <polygon points="63.621 46.682 83.179 27.123 78.726 22.67 52.41 48.986 63.621 48.992 63.621 46.682" fill="#d5d5d5" stroke-width="0"/>
    <path d="M104.533,49.128l-6.327-5.568.074,8.16v29.145h27.524v-31.737h-21.271ZM120.435,69.856h-15.495v-11.678h15.495v11.678Z" fill="#d5d5d5" stroke-width="0"/>
    <g>
      <polyline points="63.621 80.865 63.621 46.682 79.256 31.046" fill="none" stroke="#4a4a4a" stroke-linecap="round" stroke-linejoin="round" stroke-width="2"/>
      <line x1="98.28" y1="49.5" x2="98.28" y2="80.865" fill="none" stroke="#4a4a4a" stroke-linecap="round" stroke-linejoin="round" stroke-width="2"/>
      <polyline points="78.726 22.67 111.217 22.67 137.675 49.128 105.184 49.128 78.726 22.67 52.41 48.986 63.621 48.986" fill="none" stroke="#4a4a4a" stroke-linecap="round" stroke-linejoin="round" stroke-width="2"/>
      <line x1="125.804" y1="49.128" x2="125.804" y2="80.865" fill="none" stroke="#4a4a4a" stroke-linecap="round" stroke-linejoin="round" stroke-width="2"/>
      <polyline points="61.361 49.128 41.05 69.439 51.066 69.439" fill="none" stroke="#4a4a4a" stroke-linecap="round" stroke-linejoin="round" stroke-width="2"/>
      <path d="M51.066,80.865v-13.495l12.555-12.555" fill="none" stroke="#4a4a4a" stroke-linecap="round" stroke-linejoin="round" stroke-width="2"/>
      <polyline points="75.288 80.865 75.288 63.536 85.051 63.536 85.051 80.865" fill="none" stroke="#4a4a4a" stroke-linecap="round" stroke-linejoin="round" stroke-width="2"/>
      <polyline points="120.435 62.822 120.435 69.856 104.94 69.856 104.94 58.178 120.435 58.178" fill="none" stroke="#4a4a4a" stroke-linecap="round" stroke-linejoin="round" stroke-width="2"/>
      <circle cx="80.169" cy="47.557" r="4.857" fill="none" stroke="#4a4a4a" stroke-linecap="round" stroke-linejoin="round" stroke-width="2"/>
    </g>
    <line x1="44.059" y1="80.865" x2="137.239" y2="80.865" fill="none" stroke="#4a4a4a" stroke-linecap="round" stroke-linejoin="round" stroke-width="2"/>
  </g>
  <g>
    <polygon points="50.393 87.16 33.266 88.926 18.301 83.675 35.427 81.909 50.393 87.16" fill="#fff" stroke-width="0"/>
    <polygon points="35.427 81.909 18.301 83.675 9.154 68.089 26.28 66.323 35.427 81.909" fill="#fff" stroke-width="0"/>
    <polygon points="50.393 87.16 33.266 88.926 18.301 83.675 35.427 81.909 50.393 87.16" fill="none" stroke="#4a4a4a" stroke-linecap="round" stroke-linejoin="round" stroke-width="2"/>
    <polygon points="35.427 81.909 18.301 83.675 9.154 68.089 26.28 66.323 35.427 81.909" fill="none" stroke="#4a4a4a" stroke-linecap="round" stroke-linejoin="round" stroke-width="2"/>
    <line x1="33.266" y1="88.926" x2="33.837" y2="94.463" fill="none" stroke="#4a4a4a" stroke-linecap="round" stroke-linejoin="round" stroke-width="2"/>
    <line x1="18.301" y1="83.675" x2="18.872" y2="89.212" fill="none" stroke="#4a4a4a" stroke-linecap="round" stroke-linejoin="round" stroke-width="2"/>
    <line x1="50.393" y1="87.16" x2="50.964" y2="92.697" fill="none" stroke="#4a4a4a" stroke-linecap="round" stroke-linejoin="round" stroke-width="2"/>
    <line x1="11.165" y1="71.515" x2="28.02" y2="69.777" fill="none" stroke="#4a4a4a" stroke-linecap="round" stroke-linejoin="round" stroke-width="2"/>
    <line x1="13.863" y1="75.868" x2="30.718" y2="74.13" fill="none" stroke="#4a4a4a" stroke-linecap="round" stroke-linejoin="round" stroke-width="2"/>
    <line x1="16.561" y1="80.221" x2="33.417" y2="78.483" fill="none" stroke="#4a4a4a" stroke-linecap="round" stroke-linejoin="round" stroke-width="2"/>
  </g>
  <g>
    <path d="M101.134,103.948c-7.995,0-14.477,3.425-14.477,7.651s6.481,7.651,14.477,7.651,14.477-3.425,14.477-7.651-6.481-7.651-14.477-7.651ZM101.134,111.599c-2.613,0-4.732-.574-4.732-1.283s2.118-1.283,4.732-1.283,4.732.574,4.732,1.283-2.118,1.283-4.732,1.283Z" fill="#fff" stroke-width="0"/>
    <path d="M101.134,103.948c-7.995,0-14.477,3.425-14.477,7.651s6.481,7.651,14.477,7.651,14.477-3.425,14.477-7.651-6.481-7.651-14.477-7.651ZM101.134,111.599c-2.613,0-4.732-.574-4.732-1.283s2.118-1.283,4.732-1.283,4.732.574,4.732,1.283-2.118,1.283-4.732,1.283Z" fill="none" stroke="#4a4a4a" stroke-linecap="round" stroke-linejoin="round" stroke-width="2"/>
    <path d="M97.782,109.41s-1.379-3.008-7.796-2.692" fill="none" stroke="#4a4a4a" stroke-linecap="round" stroke-linejoin="round" stroke-width="2"/>
    <path d="M105.866,110.316s1.4-2.462,6.417-3.598" fill="none" stroke="#4a4a4a" stroke-linecap="round" stroke-linejoin="round" stroke-width="2"/>
    <path d="M100.843,111.595s-3.429,1.858-4.44,7.236" fill="none" stroke="#4a4a4a" stroke-linecap="round" stroke-linejoin="round" stroke-width="2"/>
  </g>
</svg>