<svg width="146" height="111" viewBox="0 0 146 111" fill="none" xmlns="http://www.w3.org/2000/svg">
<g clip-path="url(#clip0_1_145)">
<path d="M123.173 70.287H22.827L4.71001 109.374H141.29L123.173 70.287Z" fill="#2DB0FB"/>
<path d="M44.148 34.021V60.891H64.352V48.239C64.352 44.493 67.389 41.456 71.135 41.456C74.881 41.456 77.918 44.493 77.918 48.239V60.891H101.739V34.021H44.148ZM58.946 51.629V53.472H52.163V47.146C52.163 45.273 53.681 43.755 55.554 43.755C57.427 43.755 58.945 45.273 58.945 47.146L58.946 51.629ZM95.531 53.472H88.748V47.146C88.748 45.273 90.266 43.755 92.139 43.755C94.012 43.755 95.53 45.273 95.53 47.146L95.531 53.472Z" fill="#D5D5D5"/>
<path d="M82.541 5.48599V60.89H44.148V5.48599" stroke="#4A4A4A" stroke-width="2" stroke-linecap="round" stroke-linejoin="round"/>
<path d="M101.738 5.48599V60.89H82.541V5.48599" stroke="#4A4A4A" stroke-width="2" stroke-linecap="round" stroke-linejoin="round"/>
<path d="M64.352 5.486H42.478V0.783005H82.541V5.486H67.548" stroke="#4A4A4A" stroke-width="2" stroke-linecap="round" stroke-linejoin="round"/>
<path d="M103.521 0.783005H82.541V5.486H103.521V0.783005Z" stroke="#4A4A4A" stroke-width="2" stroke-linecap="round" stroke-linejoin="round"/>
<path d="M47.207 34.021H97.055" stroke="#4A4A4A" stroke-width="2" stroke-linecap="round" stroke-linejoin="round"/>
<path d="M59.142 12.357H51.968V27.249H59.142V12.357Z" stroke="#4A4A4A" stroke-width="2" stroke-linecap="round" stroke-linejoin="round"/>
<path d="M74.722 12.357H67.548V27.249H74.722V12.357Z" stroke="#4A4A4A" stroke-width="2" stroke-linecap="round" stroke-linejoin="round"/>
<path d="M95.727 12.357H88.553V27.249H95.727V12.357Z" stroke="#4A4A4A" stroke-width="2" stroke-linecap="round" stroke-linejoin="round"/>
<path d="M71.135 41.455C74.878 41.455 77.918 44.494 77.918 48.238V60.89H64.353V48.238C64.353 44.495 67.391 41.455 71.135 41.455Z" stroke="#4A4A4A" stroke-width="2" stroke-linecap="round" stroke-linejoin="round"/>
<path d="M92.14 43.755C94.012 43.755 95.531 45.275 95.531 47.146V53.472H88.748V47.146C88.748 45.274 90.269 43.755 92.14 43.755Z" stroke="#4A4A4A" stroke-width="2" stroke-linecap="round" stroke-linejoin="round"/>
<path d="M58.946 53.472H52.163V47.146C52.163 45.273 53.681 43.755 55.554 43.755C57.427 43.755 58.945 45.273 58.945 47.146V50.674" stroke="#4A4A4A" stroke-width="2" stroke-linecap="round" stroke-linejoin="round"/>
<path d="M29.696 60.89H116.304" stroke="#4A4A4A" stroke-width="2" stroke-linecap="round" stroke-linejoin="round"/>
<path d="M25.171 66.948H40.696" stroke="#4A4A4A" stroke-width="2" stroke-linecap="round" stroke-linejoin="round"/>
<path d="M15.971 77.053L17.663 73.401" stroke="#4A4A4A" stroke-width="2" stroke-linecap="round" stroke-linejoin="round"/>
<path d="M10.192 89.521L15.971 77.053" stroke="#4A4A4A" stroke-width="2" stroke-linecap="round" stroke-linejoin="round"/>
<path d="M44.739 66.948H125.346L145.01 109.374H0.990005L8.73601 92.662" stroke="#4A4A4A" stroke-width="2" stroke-linecap="round" stroke-linejoin="round"/>
<path d="M136.283 98.571L141.29 109.374" stroke="#4A4A4A" stroke-width="2" stroke-linecap="round" stroke-linejoin="round"/>
<path d="M22.827 70.287H123.173L134.805 95.382" stroke="#4A4A4A" stroke-width="2" stroke-linecap="round" stroke-linejoin="round"/>
<path d="M14.998 87.178L22.827 70.287" stroke="#4A4A4A" stroke-width="2" stroke-linecap="round" stroke-linejoin="round"/>
<path d="M4.71001 109.374L8.09401 102.073" stroke="#4A4A4A" stroke-width="2" stroke-linecap="round" stroke-linejoin="round"/>
<path d="M3.118 104.783V95.919C3.118 93.846 4.799 92.165 6.872 92.165C8.945 92.165 10.626 93.846 10.626 95.919V106.927" stroke="#4A4A4A" stroke-width="2" stroke-linecap="round" stroke-linejoin="round"/>
<path d="M7.49001 92.217V88.338C7.49001 86.265 9.17101 84.584 11.244 84.584C13.317 84.584 14.998 86.265 14.998 88.338V99.346" stroke="#4A4A4A" stroke-width="2" stroke-linecap="round" stroke-linejoin="round"/>
<path d="M13.291 82.834V73.97C13.291 71.897 14.972 70.216 17.045 70.216C19.118 70.216 20.799 71.897 20.799 73.97V84.978" stroke="#4A4A4A" stroke-width="2" stroke-linecap="round" stroke-linejoin="round"/>
<path d="M17.663 70.268V66.389C17.663 64.316 19.344 62.635 21.417 62.635C23.49 62.635 25.171 64.316 25.171 66.389V77.397" stroke="#4A4A4A" stroke-width="2" stroke-linecap="round" stroke-linejoin="round"/>
<path d="M86.423 79.705C88.411 79.705 88.411 81.137 90.398 81.137C92.385 81.137 92.385 79.705 94.372 79.705C96.359 79.705 96.359 81.137 98.347 81.137C100.335 81.137 100.335 79.705 102.323 79.705C104.311 79.705 104.314 81.137 106.305 81.137C108.296 81.137 108.296 79.705 110.287 79.705" stroke="#4A4A4A" stroke-width="2" stroke-linecap="round" stroke-linejoin="round"/>
<path d="M101.738 101.357C103.726 101.357 103.726 102.789 105.713 102.789C107.7 102.789 107.7 101.357 109.687 101.357C111.674 101.357 111.674 102.789 113.662 102.789C115.65 102.789 115.65 101.357 117.638 101.357C119.626 101.357 119.629 102.789 121.62 102.789C123.611 102.789 123.611 101.357 125.602 101.357" stroke="#4A4A4A" stroke-width="2" stroke-linecap="round" stroke-linejoin="round"/>
<path d="M33.304 91.449C35.292 91.449 35.292 92.881 37.279 92.881C39.266 92.881 39.266 91.449 41.253 91.449C43.24 91.449 43.24 92.881 45.228 92.881C47.216 92.881 47.216 91.449 49.204 91.449C51.192 91.449 51.195 92.881 53.186 92.881C55.177 92.881 55.177 91.449 57.168 91.449" stroke="#4A4A4A" stroke-width="2" stroke-linecap="round" stroke-linejoin="round"/>
<path d="M18.537 85.564C19.745 85.564 19.745 86.435 20.953 86.435C22.161 86.435 22.163 85.564 23.372 85.564C24.581 85.564 24.582 86.435 25.791 86.435C27 86.435 27.001 85.564 28.211 85.564C29.421 85.564 29.423 86.435 30.635 86.435C31.847 86.435 31.847 85.564 33.059 85.564" stroke="#4A4A4A" stroke-width="2" stroke-linecap="round" stroke-linejoin="round"/>
<path d="M12.798 99.111C14.006 99.111 14.006 99.982 15.214 99.982C16.422 99.982 16.424 99.111 17.633 99.111C18.842 99.111 18.843 99.982 20.052 99.982C21.261 99.982 21.262 99.111 22.472 99.111C23.682 99.111 23.684 99.982 24.896 99.982C26.108 99.982 26.108 99.111 27.32 99.111" stroke="#4A4A4A" stroke-width="2" stroke-linecap="round" stroke-linejoin="round"/>
<path d="M70.656 101.325C71.864 101.325 71.864 102.196 73.072 102.196C74.28 102.196 74.282 101.325 75.491 101.325C76.7 101.325 76.701 102.196 77.91 102.196C79.119 102.196 79.12 101.325 80.33 101.325C81.54 101.325 81.542 102.196 82.754 102.196C83.966 102.196 83.966 101.325 85.178 101.325" stroke="#4A4A4A" stroke-width="2" stroke-linecap="round" stroke-linejoin="round"/>
<path d="M48.293 78.324C49.501 78.324 49.501 79.195 50.709 79.195C51.917 79.195 51.919 78.324 53.128 78.324C54.337 78.324 54.338 79.195 55.547 79.195C56.756 79.195 56.757 78.324 57.967 78.324C59.177 78.324 59.179 79.195 60.391 79.195C61.603 79.195 61.603 78.324 62.815 78.324" stroke="#4A4A4A" stroke-width="2" stroke-linecap="round" stroke-linejoin="round"/>
</g>
<defs>
<clipPath id="clip0_1_145">
<rect width="146" height="111" fill="white"/>
</clipPath>
</defs>
</svg>
