<svg width="146" height="111" viewBox="0 0 146 111" fill="none" xmlns="http://www.w3.org/2000/svg">
<g clip-path="url(#clip0_1_144)">
<path d="M123.62 70.287H23.274L5.156 109.374H141.737L123.62 70.287Z" fill="#D5D5D5"/>
<path d="M30.142 60.89H116.751" stroke="#4A4A4A" stroke-width="2" stroke-linecap="round" stroke-linejoin="round"/>
<path d="M44.148 34.021V60.891H64.352V48.239C64.352 44.493 67.389 41.456 71.135 41.456C74.881 41.456 77.918 44.493 77.918 48.239V60.891H101.739V34.021H44.148ZM58.946 51.629V53.472H52.163V47.146C52.163 45.273 53.681 43.755 55.554 43.755C57.427 43.755 58.945 45.273 58.945 47.146L58.946 51.629ZM95.531 53.472H88.748V47.146C88.748 45.273 90.266 43.755 92.139 43.755C94.012 43.755 95.53 45.273 95.53 47.146L95.531 53.472Z" fill="#D5D5D5"/>
<path d="M82.541 5.48599V60.89H44.148V5.48599" stroke="#4A4A4A" stroke-width="2" stroke-linecap="round" stroke-linejoin="round"/>
<path d="M101.738 5.48599V60.89H82.541V5.48599" stroke="#4A4A4A" stroke-width="2" stroke-linecap="round" stroke-linejoin="round"/>
<path d="M64.352 5.486H42.478V0.783005H82.541V5.486H67.548" stroke="#4A4A4A" stroke-width="2" stroke-linecap="round" stroke-linejoin="round"/>
<path d="M103.521 0.783005H82.541V5.486H103.521V0.783005Z" stroke="#4A4A4A" stroke-width="2" stroke-linecap="round" stroke-linejoin="round"/>
<path d="M47.207 34.021H97.055" stroke="#4A4A4A" stroke-width="2" stroke-linecap="round" stroke-linejoin="round"/>
<path d="M59.142 12.357H51.968V27.249H59.142V12.357Z" stroke="#4A4A4A" stroke-width="2" stroke-linecap="round" stroke-linejoin="round"/>
<path d="M74.722 12.357H67.548V27.249H74.722V12.357Z" stroke="#4A4A4A" stroke-width="2" stroke-linecap="round" stroke-linejoin="round"/>
<path d="M95.727 12.357H88.553V27.249H95.727V12.357Z" stroke="#4A4A4A" stroke-width="2" stroke-linecap="round" stroke-linejoin="round"/>
<path d="M71.135 41.455C74.878 41.455 77.918 44.494 77.918 48.238V60.89H64.353V48.238C64.353 44.495 67.391 41.455 71.135 41.455Z" stroke="#4A4A4A" stroke-width="2" stroke-linecap="round" stroke-linejoin="round"/>
<path d="M92.14 43.755C94.012 43.755 95.531 45.275 95.531 47.146V53.472H88.748V47.146C88.748 45.274 90.269 43.755 92.14 43.755Z" stroke="#4A4A4A" stroke-width="2" stroke-linecap="round" stroke-linejoin="round"/>
<path d="M58.946 53.472H52.163V47.146C52.163 45.273 53.681 43.755 55.554 43.755C57.427 43.755 58.945 45.273 58.945 47.146V50.674" stroke="#4A4A4A" stroke-width="2" stroke-linecap="round" stroke-linejoin="round"/>
<path d="M25.618 66.948H41.142" stroke="#4A4A4A" stroke-width="2" stroke-linecap="round" stroke-linejoin="round"/>
<path d="M16.417 77.053L18.11 73.401" stroke="#4A4A4A" stroke-width="2" stroke-linecap="round" stroke-linejoin="round"/>
<path d="M10.638 89.521L16.417 77.053" stroke="#4A4A4A" stroke-width="2" stroke-linecap="round" stroke-linejoin="round"/>
<path d="M45.186 66.948H125.792L145.457 109.374H1.436L9.183 92.662" stroke="#4A4A4A" stroke-width="2" stroke-linecap="round" stroke-linejoin="round"/>
<path d="M136.73 98.571L141.737 109.374" stroke="#4A4A4A" stroke-width="2" stroke-linecap="round" stroke-linejoin="round"/>
<path d="M23.274 70.287H123.62L135.251 95.382" stroke="#4A4A4A" stroke-width="2" stroke-linecap="round" stroke-linejoin="round"/>
<path d="M15.445 87.178L23.274 70.287" stroke="#4A4A4A" stroke-width="2" stroke-linecap="round" stroke-linejoin="round"/>
<path d="M5.156 109.374L8.54 102.073" stroke="#4A4A4A" stroke-width="2" stroke-linecap="round" stroke-linejoin="round"/>
<path d="M3.564 104.783V95.919C3.564 93.846 5.245 92.165 7.318 92.165C9.391 92.165 11.072 93.846 11.072 95.919V106.927" stroke="#4A4A4A" stroke-width="2" stroke-linecap="round" stroke-linejoin="round"/>
<path d="M7.936 92.217V88.338C7.936 86.265 9.617 84.584 11.69 84.584C13.763 84.584 15.444 86.265 15.444 88.338V99.346" stroke="#4A4A4A" stroke-width="2" stroke-linecap="round" stroke-linejoin="round"/>
<path d="M13.738 82.834V73.97C13.738 71.897 15.419 70.216 17.492 70.216C19.565 70.216 21.246 71.897 21.246 73.97V84.978" stroke="#4A4A4A" stroke-width="2" stroke-linecap="round" stroke-linejoin="round"/>
<path d="M18.11 70.268V66.389C18.11 64.316 19.791 62.635 21.864 62.635C23.937 62.635 25.618 64.316 25.618 66.389V77.397" stroke="#4A4A4A" stroke-width="2" stroke-linecap="round" stroke-linejoin="round"/>
<path d="M86.87 79.705C88.858 79.705 88.858 81.137 90.845 81.137C92.832 81.137 92.832 79.705 94.819 79.705C96.806 79.705 96.806 81.137 98.794 81.137C100.782 81.137 100.782 79.705 102.77 79.705C104.758 79.705 104.761 81.137 106.752 81.137C108.743 81.137 108.743 79.705 110.734 79.705" stroke="#4A4A4A" stroke-width="2" stroke-linecap="round" stroke-linejoin="round"/>
<path d="M102.185 101.357C104.173 101.357 104.173 102.789 106.16 102.789C108.147 102.789 108.147 101.357 110.134 101.357C112.121 101.357 112.121 102.789 114.109 102.789C116.097 102.789 116.097 101.357 118.085 101.357C120.073 101.357 120.076 102.789 122.067 102.789C124.058 102.789 124.058 101.357 126.049 101.357" stroke="#4A4A4A" stroke-width="2" stroke-linecap="round" stroke-linejoin="round"/>
<path d="M33.751 91.449C35.739 91.449 35.739 92.881 37.726 92.881C39.713 92.881 39.713 91.449 41.7 91.449C43.687 91.449 43.687 92.881 45.675 92.881C47.663 92.881 47.663 91.449 49.651 91.449C51.639 91.449 51.642 92.881 53.633 92.881C55.624 92.881 55.624 91.449 57.615 91.449" stroke="#4A4A4A" stroke-width="2" stroke-linecap="round" stroke-linejoin="round"/>
<path d="M18.984 85.564C20.192 85.564 20.192 86.435 21.4 86.435C22.608 86.435 22.61 85.564 23.819 85.564C25.028 85.564 25.029 86.435 26.238 86.435C27.447 86.435 27.448 85.564 28.658 85.564C29.868 85.564 29.87 86.435 31.082 86.435C32.294 86.435 32.294 85.564 33.506 85.564" stroke="#4A4A4A" stroke-width="2" stroke-linecap="round" stroke-linejoin="round"/>
<path d="M13.244 99.111C14.452 99.111 14.452 99.982 15.66 99.982C16.868 99.982 16.87 99.111 18.079 99.111C19.288 99.111 19.289 99.982 20.498 99.982C21.707 99.982 21.708 99.111 22.918 99.111C24.128 99.111 24.13 99.982 25.342 99.982C26.554 99.982 26.554 99.111 27.766 99.111" stroke="#4A4A4A" stroke-width="2" stroke-linecap="round" stroke-linejoin="round"/>
<path d="M71.103 101.325C72.311 101.325 72.311 102.196 73.519 102.196C74.727 102.196 74.729 101.325 75.938 101.325C77.147 101.325 77.148 102.196 78.357 102.196C79.566 102.196 79.567 101.325 80.777 101.325C81.987 101.325 81.989 102.196 83.201 102.196C84.413 102.196 84.413 101.325 85.625 101.325" stroke="#4A4A4A" stroke-width="2" stroke-linecap="round" stroke-linejoin="round"/>
<path d="M48.74 78.324C49.948 78.324 49.948 79.195 51.156 79.195C52.364 79.195 52.366 78.324 53.575 78.324C54.784 78.324 54.785 79.195 55.994 79.195C57.203 79.195 57.204 78.324 58.414 78.324C59.624 78.324 59.626 79.195 60.838 79.195C62.05 79.195 62.05 78.324 63.262 78.324" stroke="#4A4A4A" stroke-width="2" stroke-linecap="round" stroke-linejoin="round"/>
</g>
<defs>
<clipPath id="clip0_1_144">
<rect width="146" height="111" fill="white"/>
</clipPath>
</defs>
</svg>
