<?xml version="1.0" encoding="UTF-8"?>
<svg id="b" data-name="Layer 2" xmlns="http://www.w3.org/2000/svg" width="152.006" height="57.704" viewBox="0 0 152.006 57.704">
  <g id="c" data-name="R3_Pool Icon_Large_Gray">
    <path d="M151.006,19.127c-9.693-2.986-22.315-4.502-36.052-4.502-4.329,0-8.54.198-12.58.572-3.472.322-6.817.774-10,1.343-2.441.436-4.786.941-7.022,1.507-2.055.521-4.016,1.095-5.873,1.716-2.515.842-4.838,1.772-6.938,2.777-7.913,3.789-20.767,5.579-32.41,3.877-4.654-.68-9.685-1.052-14.938-1.052-8.964,0-17.288,1.082-24.194,2.933v22.307c13.696,4.38,36.274,7.196,72.327,5.69,30.648-1.28,59.578-5.031,77.678-11.53v-25.638Z" fill="#d5d5d5" stroke-width="0"/>
    <g>
      <path d="M151.001,11.248c-9.695-2.981-22.319-4.491-36.047-4.491-4.329,0-8.54.198-12.579.572-3.472.322-6.817.774-10,1.343-2.441.436-4.786.94-7.022,1.507-2.055.521-4.016,1.095-5.873,1.716-2.515.842-4.838,1.772-6.938,2.777-7.913,3.789-20.767,5.579-32.41,3.877-4.654-.68-9.685-1.052-14.938-1.052-8.962,0-17.287,1.08-24.193,2.929" fill="none" stroke="#4a4a4a" stroke-linecap="round" stroke-linejoin="round" stroke-width="2"/>
      <path d="M1.001,50.608c13.701,4.379,36.283,7.193,72.327,5.687,30.634-1.28,59.568-5.024,77.676-11.516" fill="none" stroke="#4a4a4a" stroke-linecap="round" stroke-linejoin="round" stroke-width="2"/>
      <path d="M34.118,25.731c-2.879-.24-5.864-.366-8.924-.366-8.962,0-17.287,1.08-24.194,2.929" fill="none" stroke="#4a4a4a" stroke-linecap="round" stroke-linejoin="round" stroke-width="2"/>
      <path d="M80.814,19.33c-2.553.851-6.145,2.191-8.272,3.21-7.913,3.789-20.767,5.579-32.41,3.877" fill="none" stroke="#4a4a4a" stroke-linecap="round" stroke-linejoin="round" stroke-width="2"/>
      <path d="M151.006,19.117c-9.695-2.982-22.322-4.492-36.052-4.492-4.329,0-8.545.15-12.579.572-2.969.311-7.31.896-7.31.896" fill="none" stroke="#4a4a4a" stroke-linecap="round" stroke-linejoin="round" stroke-width="2"/>
      <path d="M72.586,14.08v-4.74c0-2.272,1.842-4.114,4.114-4.114h0c2.272,0,4.114,1.842,4.114,4.114v15.695" fill="none" stroke="#4a4a4a" stroke-linecap="round" stroke-linejoin="round" stroke-width="2"/>
      <path d="M84.083,9.854v-4.74c0-2.272,1.842-4.114,4.114-4.114h0c2.272,0,4.114,1.842,4.114,4.114v15.695" fill="none" stroke="#4a4a4a" stroke-linecap="round" stroke-linejoin="round" stroke-width="2"/>
      <line x1="80.814" y1="16.189" x2="92.31" y2="13.061" fill="none" stroke="#4a4a4a" stroke-linecap="round" stroke-linejoin="round" stroke-width="2"/>
      <line x1="80.814" y1="21.116" x2="92.31" y2="17.989" fill="none" stroke="#4a4a4a" stroke-linecap="round" stroke-linejoin="round" stroke-width="2"/>
      <path d="M103.868,36.973c2.568,0,2.568,1.85,5.136,1.85s2.569-1.85,5.137-1.85,2.567,1.85,5.134,1.85,2.569-1.85,5.139-1.85,2.571,1.85,5.142,1.85,2.571-1.85,5.142-1.85" fill="none" stroke="#4a4a4a" stroke-linecap="round" stroke-linejoin="round" stroke-width="2"/>
      <path d="M34.652,42.028c2.568,0,2.568,1.85,5.136,1.85s2.569-1.85,5.137-1.85,2.567,1.85,5.134,1.85,2.569-1.85,5.139-1.85,2.571,1.85,5.142,1.85,2.571-1.85,5.142-1.85" fill="none" stroke="#4a4a4a" stroke-linecap="round" stroke-linejoin="round" stroke-width="2"/>
      <path d="M5.698,36.55c1.561,0,1.561,1.126,3.122,1.126s1.563-1.126,3.125-1.126,1.563,1.126,3.126,1.126,1.563-1.126,3.127-1.126,1.566,1.126,3.132,1.126,1.566-1.126,3.132-1.126" fill="none" stroke="#4a4a4a" stroke-linecap="round" stroke-linejoin="round" stroke-width="2"/>
      <path d="M67.196,30.089c1.561,0,1.561,1.126,3.122,1.126s1.563-1.126,3.125-1.126,1.563,1.126,3.126,1.126,1.563-1.126,3.127-1.126,1.566,1.126,3.132,1.126,1.566-1.126,3.132-1.126" fill="none" stroke="#4a4a4a" stroke-linecap="round" stroke-linejoin="round" stroke-width="2"/>
      <path d="M80.375,45.8c1.561,0,1.561,1.126,3.122,1.126s1.563-1.126,3.125-1.126,1.563,1.126,3.126,1.126,1.563-1.126,3.127-1.126,1.566,1.126,3.132,1.126,1.566-1.126,3.132-1.126" fill="none" stroke="#4a4a4a" stroke-linecap="round" stroke-linejoin="round" stroke-width="2"/>
      <path d="M130.632,24.802c1.561,0,1.561,1.126,3.122,1.126s1.563-1.126,3.125-1.126,1.563,1.126,3.126,1.126,1.563-1.126,3.127-1.126,1.566,1.126,3.132,1.126,1.566-1.126,3.132-1.126" fill="none" stroke="#4a4a4a" stroke-linecap="round" stroke-linejoin="round" stroke-width="2"/>
      <g>
        <path d="M119.284,24.559c-9.617,0-17.412,4.12-17.412,9.202s7.796,9.202,17.412,9.202,17.412-4.12,17.412-9.202-7.796-9.202-17.412-9.202ZM119.284,33.761c-3.143,0-5.691-.691-5.691-1.543s2.548-1.543,5.691-1.543,5.691.691,5.691,1.543-2.548,1.543-5.691,1.543Z" fill="#fff" stroke-width="0"/>
        <path d="M119.284,24.559c-9.617,0-17.412,4.12-17.412,9.202s7.796,9.202,17.412,9.202,17.412-4.12,17.412-9.202-7.796-9.202-17.412-9.202ZM119.284,33.761c-3.143,0-5.691-.691-5.691-1.543s2.548-1.543,5.691-1.543,5.691.691,5.691,1.543-2.548,1.543-5.691,1.543Z" fill="none" stroke="#4a4a4a" stroke-linecap="round" stroke-linejoin="round" stroke-width="2"/>
        <path d="M115.251,31.129s-1.658-3.618-9.377-3.238" fill="none" stroke="#4a4a4a" stroke-linecap="round" stroke-linejoin="round" stroke-width="2"/>
        <path d="M124.975,32.218s1.684-2.961,7.718-4.327" fill="none" stroke="#4a4a4a" stroke-linecap="round" stroke-linejoin="round" stroke-width="2"/>
        <path d="M118.933,33.757s-4.124,2.235-5.34,8.703" fill="none" stroke="#4a4a4a" stroke-linecap="round" stroke-linejoin="round" stroke-width="2"/>
      </g>
    </g>
  </g>
</svg>