<?xml version="1.0" encoding="UTF-8"?>
<svg id="b" data-name="Layer 2" xmlns="http://www.w3.org/2000/svg" width="138.903" height="80.086" viewBox="0 0 138.903 80.086">
  <g id="c" data-name="R3_Pool Icon_Above the Ground_Gray">
    <polygon points="112.233 12.001 26.28 12.001 12.686 41.329 125.826 41.329 112.233 12.001" fill="#d5d5d5" stroke-width="0"/>
    <polyline points="23.002 12.197 25.805 6.15 42.516 6.15" fill="none" stroke="#4a4a4a" stroke-linecap="round" stroke-linejoin="round" stroke-width="2"/>
    <line x1="45.887" y1="6.15" x2="92.582" y2="6.15" fill="none" stroke="#4a4a4a" stroke-linecap="round" stroke-linejoin="round" stroke-width="2"/>
    <polyline points="21.9 14.575 9.409 41.524 129.494 41.524 113.097 6.15 97.408 6.15" fill="none" stroke="#4a4a4a" stroke-linecap="round" stroke-linejoin="round" stroke-width="2"/>
    <polyline points="67.497 1 22.17 1 18.551 8.808" fill="none" stroke="#4a4a4a" stroke-linecap="round" stroke-linejoin="round" stroke-width="2"/>
    <polyline points="72.364 1 116.732 1 137.903 46.674 1 46.674 17.128 11.879" fill="none" stroke="#4a4a4a" stroke-linecap="round" stroke-linejoin="round" stroke-width="2"/>
    <line x1="122.407" y1="33.419" x2="126.164" y2="41.524" fill="none" stroke="#4a4a4a" stroke-linecap="round" stroke-linejoin="round" stroke-width="2"/>
    <polyline points="29.223 12.197 112.571 12.197 121.298 31.026" fill="none" stroke="#4a4a4a" stroke-linecap="round" stroke-linejoin="round" stroke-width="2"/>
    <line x1="16.64" y1="32.995" x2="26.28" y2="12.197" fill="none" stroke="#4a4a4a" stroke-linecap="round" stroke-linejoin="round" stroke-width="2"/>
    <line x1="12.686" y1="41.524" x2="15.225" y2="36.046" fill="none" stroke="#4a4a4a" stroke-linecap="round" stroke-linejoin="round" stroke-width="2"/>
    <path d="M80.643,16.786c1.655,0,1.655,1.194,3.311,1.194s1.657-1.194,3.314-1.194,1.657,1.194,3.315,1.194,1.658-1.194,3.316-1.194,1.661,1.194,3.321,1.194,1.661-1.194,3.321-1.194" fill="none" stroke="#4a4a4a" stroke-linecap="round" stroke-linejoin="round" stroke-width="2"/>
    <path d="M94.848,26.068c1.655,0,1.655,1.194,3.311,1.194s1.657-1.194,3.314-1.194,1.657,1.194,3.315,1.194,1.658-1.194,3.316-1.194,1.661,1.194,3.321,1.194,1.661-1.194,3.321-1.194" fill="none" stroke="#4a4a4a" stroke-linecap="round" stroke-linejoin="round" stroke-width="2"/>
    <path d="M31.853,34.579c1.655,0,1.655,1.194,3.311,1.194s1.657-1.194,3.314-1.194,1.657,1.194,3.315,1.194,1.658-1.194,3.316-1.194,1.661,1.194,3.321,1.194,1.661-1.194,3.321-1.194" fill="none" stroke="#4a4a4a" stroke-linecap="round" stroke-linejoin="round" stroke-width="2"/>
    <path d="M67.497,34.118c1.007,0,1.007.727,2.015.727s1.009-.727,2.017-.727,1.009.727,2.017.727,1.009-.727,2.018-.727,1.011.727,2.021.727,1.011-.727,2.021-.727" fill="none" stroke="#4a4a4a" stroke-linecap="round" stroke-linejoin="round" stroke-width="2"/>
    <path d="M53.546,21.248c1.007,0,1.007.727,2.015.727s1.009-.727,2.017-.727,1.009.727,2.017.727,1.009-.727,2.018-.727,1.011.727,2.021.727,1.011-.727,2.021-.727" fill="none" stroke="#4a4a4a" stroke-linecap="round" stroke-linejoin="round" stroke-width="2"/>
    <path d="M32.759,24.516c1.007,0,1.007.727,2.015.727s1.009-.727,2.017-.727,1.009.727,2.017.727,1.009-.727,2.018-.727,1.011.727,2.021.727,1.011-.727,2.021-.727" fill="none" stroke="#4a4a4a" stroke-linecap="round" stroke-linejoin="round" stroke-width="2"/>
    <line x1="25.805" y1="6.15" x2="26.28" y2="12.197" fill="none" stroke="#4a4a4a" stroke-linecap="round" stroke-linejoin="round" stroke-width="2"/>
    <line x1="113.084" y1="6.15" x2="112.233" y2="12.001" fill="none" stroke="#4a4a4a" stroke-linecap="round" stroke-linejoin="round" stroke-width="2"/>
    <rect x="1" y="46.674" width="136.903" height="28.957" fill="none" stroke="#4a4a4a" stroke-linecap="round" stroke-linejoin="round" stroke-width="2"/>
    <path d="M84.234,46.674v-6.062c0-3.386,2.745-6.13,6.13-6.13h0c3.386,0,6.13,2.745,6.13,6.13v38.474" fill="none" stroke="#4a4a4a" stroke-linecap="round" stroke-linejoin="round" stroke-width="2"/>
    <path d="M106.102,46.674v-6.062c0-3.386,2.745-6.13,6.13-6.13h0c3.386,0,6.13,2.745,6.13,6.13v38.474" fill="none" stroke="#4a4a4a" stroke-linecap="round" stroke-linejoin="round" stroke-width="2"/>
    <line x1="96.495" y1="56.118" x2="118.363" y2="56.118" fill="none" stroke="#4a4a4a" stroke-linecap="round" stroke-linejoin="round" stroke-width="2"/>
    <line x1="96.495" y1="65.562" x2="118.363" y2="65.562" fill="none" stroke="#4a4a4a" stroke-linecap="round" stroke-linejoin="round" stroke-width="2"/>
  </g>
</svg>