<?xml version="1.0" encoding="UTF-8"?>
<svg id="b" data-name="Layer 2" xmlns="http://www.w3.org/2000/svg" width="135.27" height="123.718" viewBox="0 0 135.27 123.718">
  <g id="c" data-name="R3_Pool Icon_With Tree_Colored">
    <g>
      <path d="M102.167,18.601s-.794,3.123,0,6.123,4.877,6.581,4.877,6.581c0,0-1.171-9.435-4.877-12.703Z" fill="#d5d5d5" stroke-width="0"/>
      <path d="M112.466,33.913s5.039-3.019,6.539-3.43,5.29.379,5.992-.102-.895,4.37-.895,4.37c0,0-8.718,4.114-11.636-.837Z" fill="#d5d5d5" stroke-width="0"/>
      <path d="M32.87,43.817l-2.343.294s-1.247,4.265-4.874,4.357c-3.627.092-5.847-.773-5.847-.773l-2.673,3.669,5.42,3.824s4.975-2.628,10.316-1.9c5.342.728,10.828,1.697,12.514.833l-12.514-10.303Z" fill="#d5d5d5" stroke-width="0"/>
      <path d="M37.369,36.6s.557,3.939-1.713,5.488c0,0,5.694,4.942,9.043,6.963,3.349,2.021,5.567,3.305,12.753,2.475,7.186-.831,16.062-3.035,16.927-3.244s9.466-3.34,8.687-7.383-5.324-6.75-9.769-7.386c-4.445-.636-12.25-.577-14.706.894s-10.741,7.845-16.729,8.758c-.327.05-2.276-2.031-2.276-2.031,0,0,4.463-1.07,6.946-2.697,4.704-3.084,8.03-6.098,8.886-6.553,1.384-.737,2.488-1.24,2.488-1.24,0,0-6.26-.562-10.056.427-3.795.988-9.356,3.255-10.481,5.531Z" fill="#d5d5d5" stroke-width="0"/>
      <path d="M129.504,104.653l-9.7-20.926c-1.218-2.627-3.85-4.308-6.746-4.308h-38.179c-4.034,0-7.336-3.21-7.45-7.243l-.024-.842c-.158-5.588-4.733-10.037-10.324-10.037h-14.744c-1.174,1.518-3.006,2.557-5.509,2.557-2.024,0-3.61-.677-4.765-1.735.25,2.919-1.505,6.046-5.279,6.046-1.203,0-2.196-.322-2.99-.848-1.023,1.19-1.897,2.526-2.577,3.994l-15.455,33.343c-2.996,6.463,1.724,13.853,8.848,13.853h106.044c7.124,0,11.843-7.39,8.848-13.853Z" fill="#2db0fb" stroke-width="0"/>
      <line x1="10.606" y1="86.185" x2="21.383" y2="62.66" fill="none" stroke="#4a4a4a" stroke-linecap="round" stroke-linejoin="round" stroke-width="2"/>
      <line x1="4.826" y1="98.653" x2="10.606" y2="86.185" fill="none" stroke="#4a4a4a" stroke-linecap="round" stroke-linejoin="round" stroke-width="2"/>
      <path d="M3.371,101.793l-1.152,2.485c-3.988,8.603,2.295,18.439,11.777,18.439h107.278c9.482,0,15.765-9.836,11.777-18.439l-10.199-22.003c-1.751-3.778-5.536-6.195-9.7-6.195h-35.876c-3.26,0-5.903-2.643-5.903-5.903h0c0-6.85-5.553-12.403-12.403-12.403h-4.323" fill="none" stroke="#4a4a4a" stroke-linecap="round" stroke-linejoin="round" stroke-width="2"/>
      <path d="M124.363,93.561l4.929,10.633c3.095,6.677-1.781,14.312-9.141,14.312H15.119c-7.36,0-12.236-7.635-9.141-14.312l1.454-3.138" fill="none" stroke="#4a4a4a" stroke-linecap="round" stroke-linejoin="round" stroke-width="2"/>
      <path d="M121.545,87.481l-1.427-3.079c-1.409-3.039-4.453-4.984-7.803-4.984h-36.934c-4.278,0-7.746-3.468-7.746-7.746h0c0-5.731-4.646-10.376-10.376-10.376h-14.854" fill="none" stroke="#4a4a4a" stroke-linecap="round" stroke-linejoin="round" stroke-width="2"/>
      <path d="M9.177,97.293l12.009-25.91c.66-1.424,1.497-2.729,2.479-3.894" fill="none" stroke="#4a4a4a" stroke-linecap="round" stroke-linejoin="round" stroke-width="2"/>
      <path d="M81.058,88.837c1.988,0,1.988,1.432,3.975,1.432s1.987-1.432,3.974-1.432,1.987,1.432,3.975,1.432,1.988-1.432,3.976-1.432,1.991,1.432,3.982,1.432,1.991-1.432,3.982-1.432" fill="none" stroke="#4a4a4a" stroke-linecap="round" stroke-linejoin="round" stroke-width="2"/>
      <path d="M96.373,110.489c1.988,0,1.988,1.432,3.975,1.432s1.987-1.432,3.974-1.432,1.987,1.432,3.975,1.432,1.988-1.432,3.976-1.432,1.991,1.432,3.982,1.432,1.991-1.432,3.982-1.432" fill="none" stroke="#4a4a4a" stroke-linecap="round" stroke-linejoin="round" stroke-width="2"/>
      <path d="M33.452,100.581c1.988,0,1.988,1.432,3.975,1.432s1.987-1.432,3.974-1.432,1.987,1.432,3.975,1.432,1.988-1.432,3.976-1.432,1.991,1.432,3.982,1.432,1.991-1.432,3.982-1.432" fill="none" stroke="#4a4a4a" stroke-linecap="round" stroke-linejoin="round" stroke-width="2"/>
      <path d="M21.133,91.983c1.208,0,1.208.871,2.416.871s1.21-.871,2.419-.871,1.21.871,2.419.871,1.21-.871,2.42-.871,1.212.871,2.424.871,1.212-.871,2.424-.871" fill="none" stroke="#4a4a4a" stroke-linecap="round" stroke-linejoin="round" stroke-width="2"/>
      <path d="M10.606,108.242c1.208,0,1.208.871,2.416.871s1.21-.871,2.419-.871,1.21.871,2.419.871,1.21-.871,2.42-.871,1.212.871,2.424.871,1.212-.871,2.424-.871" fill="none" stroke="#4a4a4a" stroke-linecap="round" stroke-linejoin="round" stroke-width="2"/>
      <path d="M65.291,110.457c1.208,0,1.208.871,2.416.871s1.21-.871,2.419-.871,1.21.871,2.419.871,1.21-.871,2.42-.871,1.212.871,2.424.871,1.212-.871,2.424-.871" fill="none" stroke="#4a4a4a" stroke-linecap="round" stroke-linejoin="round" stroke-width="2"/>
      <path d="M48.798,87.046c1.208,0,1.208.871,2.416.871s1.21-.871,2.419-.871,1.21.871,2.419.871,1.21-.871,2.42-.871,1.212.871,2.424.871,1.212-.871,2.424-.871" fill="none" stroke="#4a4a4a" stroke-linecap="round" stroke-linejoin="round" stroke-width="2"/>
      <path d="M25.774,77.806c1.208,0,1.208.871,2.416.871s1.21-.871,2.419-.871,1.21.871,2.419.871,1.21-.871,2.42-.871,1.212.871,2.424.871,1.212-.871,2.424-.871" fill="none" stroke="#4a4a4a" stroke-linecap="round" stroke-linejoin="round" stroke-width="2"/>
      <path d="M105.101,100.861c1.208,0,1.208.871,2.416.871s1.21-.871,2.419-.871,1.21.871,2.419.871,1.21-.871,2.42-.871,1.212.871,2.424.871,1.212-.871,2.424-.871" fill="none" stroke="#4a4a4a" stroke-linecap="round" stroke-linejoin="round" stroke-width="2"/>
      <path d="M42.928,69.861c1.208,0,1.208.871,2.416.871s1.21-.871,2.419-.871,1.21.871,2.419.871,1.21-.871,2.42-.871,1.212.871,2.424.871,1.212-.871,2.424-.871" fill="none" stroke="#4a4a4a" stroke-linecap="round" stroke-linejoin="round" stroke-width="2"/>
      <g>
        <path d="M99.645,71.446s5.522-1.935,5.478-6.735c0,0,1.043-7.461-7.043-14.504-8.087-7.043-14.957,2.609-32.522,6-17.565,3.391-27.764,1.353-27.764,1.353-2.976-.57-8.732-1.502-14.128,1.061" fill="none" stroke="#4a4a4a" stroke-linecap="round" stroke-linejoin="round" stroke-width="2"/>
        <path d="M121.477,30.306c-13.565,1.174-16.31,16.249-16.31,16.249,0,0,7.413,5.011,8.826,10.174,1.419,5.187,1.826,11.956,6,14.717" fill="none" stroke="#4a4a4a" stroke-linecap="round" stroke-linejoin="round" stroke-width="2"/>
        <path d="M36.514,42.453c2.087,4.246,13.212,9.113,13.212,9.113,0,0,12.896,1.111,26.31-3.871,8.689-3.227,10.966-9.667-2.739-14.184-11.478-3.783-20.087,4.304-20.087,4.304-4.891,4.109-11.348,5.348-11.348,5.348" fill="none" stroke="#4a4a4a" stroke-linecap="round" stroke-linejoin="round" stroke-width="2"/>
        <path d="M33.253,44.468c5.348,5.217,12.13,9.652,12.13,9.652,0,0-4.043.522-6.652,0s-10.665-2.295-16.826,1.435" fill="none" stroke="#4a4a4a" stroke-linecap="round" stroke-linejoin="round" stroke-width="2"/>
        <path d="M37.794,35.598c7.28-6.522,20.111-4.957,20.111-4.957,0,0-4.717,1.826-9.793,6.783" fill="none" stroke="#4a4a4a" stroke-linecap="round" stroke-linejoin="round" stroke-width="2"/>
        <path d="M101.471,17.598s6.261,8.609,5.739,12.879-7.565,12.686-7.565,12.686c0,0-9.13-1.304-11.217-3.13s-9.731-12.522-25.213-12.783c-15.482-.261-19.917-9.652-19.917-9.652" fill="none" stroke="#4a4a4a" stroke-linecap="round" stroke-linejoin="round" stroke-width="2"/>
        <path d="M106.632,32.504s-5.826,1.201-9.009-3.101c-3.62-4.891-.331-8.789-.331-8.789-3.611,0-6.538-2.927-6.538-6.538s2.927-6.538,6.538-6.538c2.239,0,4.213,1.127,5.391,2.843.746-.535,1.654-.858,2.643-.858.723,0,1.398.184,2.005.484-.142-.441-.239-.902-.239-1.391,0-2.515,2.038-4.553,4.553-4.553,2.018,0,3.71,1.322,4.307,3.141,1.113-.877,2.513-1.404,4.04-1.404,3.611,0,6.538,2.927,6.538,6.538,0,1.045-.251,2.029-.687,2.905.226-.024.455-.037.687-.037,3.611,0,6.538,2.927,6.538,6.538,0,2.588-1.508,4.818-3.689,5.878,1.498.745,2.537,2.276,2.537,4.063,0,2.515-2.063,4.904-4.553,4.553-1.761-.249-3.261-1.488-3.261-1.488,0,0-4.043,4.5-9.717,3.065" fill="none" stroke="#4a4a4a" stroke-linecap="round" stroke-linejoin="round" stroke-width="2"/>
        <path d="M66.06,16.429c2.935,0,5.314-2.379,5.314-5.314s-2.379-5.314-5.314-5.314c-.248,0-.485.04-.724.073-.737-2.803-3.281-4.874-6.316-4.874-2.998,0-5.518,2.02-6.29,4.772-.745-1.499-2.276-2.539-4.064-2.539-2.515,0-4.553,2.038-4.553,4.553,0,.488.097.95.239,1.391-.607-.3-1.282-.484-2.006-.484-.988,0-1.896.323-2.643.858-1.178-1.716-3.153-2.843-5.391-2.843-3.611,0-6.538,2.927-6.538,6.538,0,.218.012.433.033.645-.428-.133-.874-.225-1.345-.225-2.515,0-4.553,2.038-4.553,4.553,0,.01.003.02.003.03-.709.586-1.233,1.375-1.486,2.286-1.061-.479-2.234-.752-3.474-.752-4.672,0-8.459,3.787-8.459,8.459,0,1.581.442,3.056,1.197,4.322-4.215.482-7.49,4.056-7.49,8.399,0,4.672,3.787,8.459,8.459,8.459,1.307,0,2.541-.305,3.646-.835.338,1.384,1.433,2.466,2.827,2.777-1.118,1.151-1.809,2.719-1.809,4.451,0,3.426,2.697,6.214,6.082,6.377-.013.155-.024.31-.024.468,0,3.086,2.502,5.589,5.589,5.589s5.589-2.502,5.589-5.589c0,0,3.673,2.193,7.177.588,4.408-2.019,3.56-5.148,3.56-5.148" fill="none" stroke="#4a4a4a" stroke-linecap="round" stroke-linejoin="round" stroke-width="2"/>
        <path d="M37.794,16.685c3.171,5.87,10.056,10.696,10.056,10.696,0,0-5.671-.196-10.297,3" fill="none" stroke="#4a4a4a" stroke-linecap="round" stroke-linejoin="round" stroke-width="2"/>
        <path d="M89.929,32.578c1.907-2.231,1.645-5.585-.585-7.492-.188-.161-.395-.285-.598-.415,1.262-2.61.673-5.837-1.633-7.809-2.278-1.948-5.507-2.051-7.881-.461.408-1.624-.08-3.409-1.439-4.571-1.911-1.634-4.785-1.41-6.419.502" fill="none" stroke="#4a4a4a" stroke-linecap="round" stroke-linejoin="round" stroke-width="2"/>
        <path d="M109.058,15.765c-1.18,2.015-.503,4.604,1.511,5.784.17.1.349.167.526.241-.621,2.221.293,4.665,2.376,5.885,2.058,1.205,4.6.832,6.236-.747-.091,1.329.542,2.658,1.769,3.377,1.726,1.011,3.945.431,4.956-1.295" fill="none" stroke="#4a4a4a" stroke-linecap="round" stroke-linejoin="round" stroke-width="2"/>
        <path d="M23.667,48.217c2.789.914,5.791-.607,6.704-3.396.077-.236.113-.473.156-.711,2.893.172,5.653-1.601,6.598-4.485.933-2.849-.202-5.873-2.576-7.462,1.657-.241,3.122-1.373,3.678-3.072.783-2.39-.52-4.961-2.909-5.744" fill="none" stroke="#4a4a4a" stroke-linecap="round" stroke-linejoin="round" stroke-width="2"/>
        <line x1="123.113" y1="71.446" x2="78.981" y2="71.446" fill="none" stroke="#4a4a4a" stroke-linecap="round" stroke-linejoin="round" stroke-width="2"/>
      </g>
      <path d="M129.053,95.212v-8.864c0-2.073-1.681-3.754-3.754-3.754h0c-2.073,0-3.754,1.681-3.754,3.754v11.008" fill="none" stroke="#4a4a4a" stroke-linecap="round" stroke-linejoin="round" stroke-width="2"/>
      <path d="M124.681,82.646v-3.879c0-2.073-1.681-3.754-3.754-3.754h0c-2.073,0-3.754,1.681-3.754,3.754v11.008" fill="none" stroke="#4a4a4a" stroke-linecap="round" stroke-linejoin="round" stroke-width="2"/>
    </g>
  </g>
</svg>