<?xml version="1.0" encoding="UTF-8"?>
<svg id="b" data-name="Layer 2" xmlns="http://www.w3.org/2000/svg" width="96.382" height="32.637" viewBox="0 0 96.382 32.637">
  <g id="c" data-name="R3_Pool Icon_Small_Colored">
    <g>
      <path d="M67.729,10.532c-2.171,0-4.284.099-6.31.287-1.741.161-3.419.388-5.016.673-1.224.219-2.401.472-3.522.756-1.031.261-2.014.549-2.946.861-1.262.422-2.426.889-3.48,1.393-3.969,1.901-10.416,2.798-16.256,1.945-2.334-.341-4.858-.528-7.492-.528-10.355,0-19.011,2.875-21.179,6.721,2.325,4.597,13.086,10.139,45.322,8.792,23.534-.983,45.057-4.869,48.142-12.163-2.201-5.772-13.646-8.737-27.263-8.737Z" fill="#2db0fb" stroke-width="0"/>
      <path d="M67.729,6.585c-2.171,0-4.284.099-6.309.287-1.741.161-3.419.388-5.016.673-1.224.219-2.401.472-3.522.756-1.031.261-2.014.549-2.946.861-1.262.422-2.426.889-3.48,1.393-3.969,1.901-10.416,2.798-16.256,1.945-2.334-.341-4.858-.528-7.492-.528C10.719,11.972,1,15.825,1,20.578s8.565,12.411,45.85,10.854c25.324-1.058,48.333-5.474,48.53-13.884.17-7.236-12.38-10.962-27.652-10.962Z" fill="none" stroke="#4a4a4a" stroke-linecap="round" stroke-linejoin="round" stroke-width="2"/>
      <path d="M27.184,16.102c-1.444-.12-2.941-.184-4.476-.184-10.322,0-18.962,2.856-21.165,6.684" fill="none" stroke="#4a4a4a" stroke-linecap="round" stroke-linejoin="round" stroke-width="2"/>
      <path d="M49.986,13.092c-1.281.427-2.462.899-3.53,1.41-3.969,1.901-10.416,2.798-16.256,1.945" fill="none" stroke="#4a4a4a" stroke-linecap="round" stroke-linejoin="round" stroke-width="2"/>
      <path d="M94.998,19.26c-2.207-5.768-13.657-8.728-27.269-8.728-2.171,0-4.284.099-6.309.287" fill="none" stroke="#4a4a4a" stroke-linecap="round" stroke-linejoin="round" stroke-width="2"/>
      <path d="M43.358,11.699v-3.877c0-1.858,1.507-3.365,3.365-3.365h0c1.858,0,3.365,1.507,3.365,3.365v10.003" fill="none" stroke="#4a4a4a" stroke-linecap="round" stroke-linejoin="round" stroke-width="2"/>
      <path d="M52.762,8.242v-3.877c0-1.858,1.507-3.365,3.365-3.365h0c1.858,0,3.365,1.507,3.365,3.365v10.003" fill="none" stroke="#4a4a4a" stroke-linecap="round" stroke-linejoin="round" stroke-width="2"/>
      <line x1="50.088" y1="11.66" x2="59.492" y2="9.101" fill="none" stroke="#4a4a4a" stroke-linecap="round" stroke-linejoin="round" stroke-width="2"/>
      <line x1="50.088" y1="14.896" x2="59.492" y2="12.338" fill="none" stroke="#4a4a4a" stroke-linecap="round" stroke-linejoin="round" stroke-width="2"/>
      <path d="M62.169,21.741c1.286,0,1.286.928,2.573.928s1.288-.928,2.576-.928,1.288.928,2.576.928,1.288-.928,2.577-.928,1.291.928,2.581.928,1.291-.928,2.581-.928" fill="none" stroke="#4a4a4a" stroke-linecap="round" stroke-linejoin="round" stroke-width="2"/>
      <path d="M27.452,24.276c1.286,0,1.286.928,2.573.928s1.288-.928,2.576-.928,1.288.928,2.576.928,1.288-.928,2.577-.928,1.291.928,2.581.928,1.291-.928,2.581-.928" fill="none" stroke="#4a4a4a" stroke-linecap="round" stroke-linejoin="round" stroke-width="2"/>
      <path d="M9.658,22.546c.783,0,.783.565,1.566.565s.784-.565,1.568-.565.783.565,1.565.565.784-.565,1.569-.565.786.565,1.572.565.786-.565,1.572-.565" fill="none" stroke="#4a4a4a" stroke-linecap="round" stroke-linejoin="round" stroke-width="2"/>
      <path d="M43.775,18.288c.783,0,.783.565,1.566.565s.784-.565,1.568-.565.783.565,1.565.565.784-.565,1.569-.565.786.565,1.572.565.786-.565,1.572-.565" fill="none" stroke="#4a4a4a" stroke-linecap="round" stroke-linejoin="round" stroke-width="2"/>
      <path d="M50.385,26.168c.783,0,.783.565,1.566.565s.784-.565,1.568-.565.783.565,1.565.565.784-.565,1.569-.565.786.565,1.572.565.786-.565,1.572-.565" fill="none" stroke="#4a4a4a" stroke-linecap="round" stroke-linejoin="round" stroke-width="2"/>
      <path d="M75.592,15.636c.783,0,.783.565,1.566.565s.784-.565,1.568-.565.783.565,1.565.565.784-.565,1.569-.565.786.565,1.572.565.786-.565,1.572-.565" fill="none" stroke="#4a4a4a" stroke-linecap="round" stroke-linejoin="round" stroke-width="2"/>
      <g>
        <path d="M73.968,10.439c-7.995,0-14.477,3.425-14.477,7.651s6.481,7.651,14.477,7.651,14.477-3.425,14.477-7.651-6.481-7.651-14.477-7.651ZM73.968,18.09c-2.613,0-4.732-.574-4.732-1.283s2.118-1.283,4.732-1.283,4.732.574,4.732,1.283-2.118,1.283-4.732,1.283Z" fill="#fff" stroke-width="0"/>
        <path d="M73.968,10.439c-7.995,0-14.477,3.425-14.477,7.651s6.481,7.651,14.477,7.651,14.477-3.425,14.477-7.651-6.481-7.651-14.477-7.651ZM73.968,18.09c-2.613,0-4.732-.574-4.732-1.283s2.118-1.283,4.732-1.283,4.732.574,4.732,1.283-2.118,1.283-4.732,1.283Z" fill="none" stroke="#4a4a4a" stroke-linecap="round" stroke-linejoin="round" stroke-width="2"/>
        <path d="M70.616,15.901s-1.379-3.008-7.796-2.692" fill="none" stroke="#4a4a4a" stroke-linecap="round" stroke-linejoin="round" stroke-width="2"/>
        <path d="M78.7,16.807s1.4-2.462,6.417-3.598" fill="none" stroke="#4a4a4a" stroke-linecap="round" stroke-linejoin="round" stroke-width="2"/>
        <path d="M73.677,18.086s-3.429,1.858-4.44,7.236" fill="none" stroke="#4a4a4a" stroke-linecap="round" stroke-linejoin="round" stroke-width="2"/>
      </g>
    </g>
  </g>
</svg>