<?xml version="1.0" encoding="UTF-8"?>
<svg id="b" data-name="Layer 2" xmlns="http://www.w3.org/2000/svg" width="132.462" height="88.72" viewBox="0 0 132.462 88.72">
  <g id="c" data-name="R3_Pool Icon_Hot Tub_Colored">
    <g>
      <path d="M103.814,24.091H28.258c-3.189,0-6.108,1.792-7.551,4.636l-11.241,22.148h113.14l-11.241-22.148c-1.443-2.844-4.362-4.636-7.551-4.636Z" fill="#2db0fb" stroke-width="0"/>
      <path d="M18.68,26.013l1.926-3.834c1.213-2.415,3.685-3.939,6.387-3.939h12.302" fill="none" stroke="#4a4a4a" stroke-linecap="round" stroke-linejoin="round" stroke-width="2"/>
      <line x1="65.036" y1="18.24" x2="42.667" y2="18.24" fill="none" stroke="#4a4a4a" stroke-linecap="round" stroke-linejoin="round" stroke-width="2"/>
      <line x1="89.362" y1="18.24" x2="69.829" y2="18.24" fill="none" stroke="#4a4a4a" stroke-linecap="round" stroke-linejoin="round" stroke-width="2"/>
      <path d="M18.68,26.013l-11.118,22.129c-.641,1.276.369,2.734,1.893,2.734h113.552c1.524,0,2.534-1.459,1.893-2.734l-13.044-25.963c-1.213-2.415-3.685-3.939-6.387-3.939h-8.542" fill="none" stroke="#4a4a4a" stroke-linecap="round" stroke-linejoin="round" stroke-width="2"/>
      <path d="M40.078,13.09h-12.522c-5.248,0-10.018,3.047-12.225,7.808h0" fill="none" stroke="#4a4a4a" stroke-linecap="round" stroke-linejoin="round" stroke-width="2"/>
      <line x1="64.277" y1="13.09" x2="44.431" y2="13.09" fill="none" stroke="#4a4a4a" stroke-linecap="round" stroke-linejoin="round" stroke-width="2"/>
      <line x1="88.84" y1="13.09" x2="69.144" y2="13.09" fill="none" stroke="#4a4a4a" stroke-linecap="round" stroke-linejoin="round" stroke-width="2"/>
      <path d="M13.908,23.969L1.536,50.661c-1.752,3.781,1.008,8.103,5.175,8.103h119.04c4.167,0,6.928-4.323,5.175-8.103l-13.795-29.763c-2.207-4.761-6.977-7.808-12.225-7.808h-7.584" fill="none" stroke="#4a4a4a" stroke-linecap="round" stroke-linejoin="round" stroke-width="2"/>
      <path d="M122.606,50.875l-10.996-22.057c-1.384-2.777-4.22-4.532-7.323-4.532H28.066c-3.073,0-5.887,1.722-7.285,4.458l-11.314,22.131" fill="none" stroke="#4a4a4a" stroke-linecap="round" stroke-linejoin="round" stroke-width="2"/>
      <path d="M77.423,28.876c1.655,0,1.655,1.194,3.311,1.194s1.657-1.194,3.314-1.194,1.657,1.194,3.315,1.194,1.658-1.194,3.316-1.194,1.661,1.194,3.321,1.194,1.661-1.194,3.321-1.194" fill="none" stroke="#4a4a4a" stroke-linecap="round" stroke-linejoin="round" stroke-width="2"/>
      <path d="M64.439,28.189c0-3.315,1.194-3.315,1.194-6.63s-1.194-3.317-1.194-6.634,1.194-3.317,1.194-6.634" fill="none" stroke="#4a4a4a" stroke-linecap="round" stroke-linejoin="round" stroke-width="2"/>
      <path d="M39.481,20.898c0-3.315,1.194-3.315,1.194-6.63s-1.194-3.317-1.194-6.634,1.194-3.317,1.194-6.634" fill="none" stroke="#4a4a4a" stroke-linecap="round" stroke-linejoin="round" stroke-width="2"/>
      <path d="M92.808,20.898c0-3.315,1.194-3.315,1.194-6.63s-1.194-3.317-1.194-6.634,1.194-3.317,1.194-6.634" fill="none" stroke="#4a4a4a" stroke-linecap="round" stroke-linejoin="round" stroke-width="2"/>
      <path d="M88.504,23.039c0-3.315,1.194-3.315,1.194-6.63s-1.194-3.317-1.194-6.634,1.194-3.317,1.194-6.634" fill="none" stroke="#4a4a4a" stroke-linecap="round" stroke-linejoin="round" stroke-width="2"/>
      <path d="M42.627,42.303c0-2.351.847-2.351.847-4.703s-.847-2.353-.847-4.706.847-2.353.847-4.706" fill="none" stroke="#4a4a4a" stroke-linecap="round" stroke-linejoin="round" stroke-width="2"/>
      <path d="M71.635,45.876c0-2.253.811-2.253.811-4.505s-.811-2.254-.811-4.508.811-2.254.811-4.508" fill="none" stroke="#4a4a4a" stroke-linecap="round" stroke-linejoin="round" stroke-width="2"/>
      <path d="M90.193,46.93c1.655,0,1.655,1.194,3.311,1.194s1.657-1.194,3.314-1.194,1.657,1.194,3.315,1.194,1.658-1.194,3.316-1.194,1.661,1.194,3.321,1.194,1.661-1.194,3.321-1.194" fill="none" stroke="#4a4a4a" stroke-linecap="round" stroke-linejoin="round" stroke-width="2"/>
      <path d="M28.633,46.669c1.655,0,1.655,1.194,3.311,1.194s1.657-1.194,3.314-1.194,1.657,1.194,3.315,1.194,1.658-1.194,3.316-1.194,1.661,1.194,3.321,1.194,1.661-1.194,3.321-1.194" fill="none" stroke="#4a4a4a" stroke-linecap="round" stroke-linejoin="round" stroke-width="2"/>
      <path d="M64.277,46.208c1.007,0,1.007.727,2.015.727s1.009-.727,2.017-.727,1.009.727,2.017.727,1.009-.727,2.018-.727,1.011.727,2.021.727,1.011-.727,2.021-.727" fill="none" stroke="#4a4a4a" stroke-linecap="round" stroke-linejoin="round" stroke-width="2"/>
      <path d="M50.326,33.338c1.007,0,1.007.727,2.015.727s1.009-.727,2.017-.727,1.009.727,2.017.727,1.009-.727,2.018-.727,1.011.727,2.021.727,1.011-.727,2.021-.727" fill="none" stroke="#4a4a4a" stroke-linecap="round" stroke-linejoin="round" stroke-width="2"/>
      <path d="M131.462,51.922v24.981c0,5.974-4.843,10.817-10.817,10.817H11.943c-5.974,0-10.817-4.843-10.817-10.817v-24.981" fill="none" stroke="#4a4a4a" stroke-linecap="round" stroke-linejoin="round" stroke-width="2"/>
      <line x1="6.711" y1="58.764" x2="6.711" y2="80.73" fill="none" stroke="#4a4a4a" stroke-linecap="round" stroke-linejoin="round" stroke-width="2"/>
      <line x1="125.096" y1="64.438" x2="125.096" y2="86.404" fill="none" stroke="#4a4a4a" stroke-linecap="round" stroke-linejoin="round" stroke-width="2"/>
    </g>
  </g>
</svg>