<?xml version="1.0" encoding="UTF-8"?>
<svg id="b" data-name="Layer 2" xmlns="http://www.w3.org/2000/svg" width="140.389" height="53.379" viewBox="0 0 140.389 53.379">
  <g id="c" data-name="R3_Pool Icon_Saltwater_Gray">
    <path d="M100.492,19.323h-60.595c-14.063,0-28.925,6.067-33.865,14.681.33,7.418,9.442,13.375,24.171,13.375h79.985c14.728,0,23.841-5.957,24.171-13.375-4.94-8.614-19.803-14.681-33.865-14.681Z" fill="#d5d5d5" stroke-width="0"/>
    <g>
      <path d="M88.813,52.379H30.202c-12.853,0-23.018-4.288-27.189-11.471-2.774-4.776-2.678-10.255.272-15.427C9.601,14.41,26.867,8.618,40.66,8.618h14.109" fill="none" stroke="#4a4a4a" stroke-linecap="round" stroke-linejoin="round" stroke-width="2"/>
      <path d="M59.334,8.618h40.395c13.793,0,31.061,5.793,37.374,16.863,2.95,5.172,3.048,10.65.273,15.426-4.172,7.184-14.336,11.472-27.189,11.472h-16.81" fill="none" stroke="#4a4a4a" stroke-linecap="round" stroke-linejoin="round" stroke-width="2"/>
      <path d="M100.492,19.323h-60.595c-14.063,0-28.925,6.067-33.865,14.681.33,7.418,9.442,13.375,24.171,13.375h79.985c14.728,0,23.841-5.957,24.171-13.375-4.94-8.614-19.803-14.681-33.865-14.681Z" fill="none" stroke="#4a4a4a" stroke-linecap="round" stroke-linejoin="round" stroke-width="2"/>
      <path d="M110.187,47.379H30.202c-18.585,0-28.242-9.482-22.574-19.419h0c4.799-8.413,19.306-14.341,33.031-14.341h59.07c13.725,0,28.233,5.928,33.031,14.341h0c5.668,9.937-3.99,19.419-22.574,19.419Z" fill="none" stroke="#4a4a4a" stroke-linecap="round" stroke-linejoin="round" stroke-width="2"/>
      <path d="M6.013,34.035h0c4.922-8.63,19.805-14.712,33.884-14.712h60.595c14.079,0,28.962,6.081,33.884,14.712h0" fill="none" stroke="#4a4a4a" stroke-linecap="round" stroke-linejoin="round" stroke-width="2"/>
      <path d="M6.238,20.809v-8.864c0-2.073,1.681-3.754,3.754-3.754h0c2.073,0,3.754,1.681,3.754,3.754v22.344" fill="none" stroke="#4a4a4a" stroke-linecap="round" stroke-linejoin="round" stroke-width="2"/>
      <path d="M17.52,13.618V4.754c0-2.073,1.681-3.754,3.754-3.754h0c2.073,0,3.754,1.681,3.754,3.754v22.344" fill="none" stroke="#4a4a4a" stroke-linecap="round" stroke-linejoin="round" stroke-width="2"/>
      <g>
        <path d="M82.553,29.695c1.988,0,1.988,1.432,3.975,1.432s1.987-1.432,3.974-1.432,1.987,1.432,3.975,1.432,1.988-1.432,3.976-1.432,1.991,1.432,3.982,1.432,1.991-1.432,3.982-1.432" fill="none" stroke="#4a4a4a" stroke-linecap="round" stroke-linejoin="round" stroke-width="2"/>
        <path d="M101.481,39.603c1.988,0,1.988,1.432,3.975,1.432s1.987-1.432,3.974-1.432,1.987,1.432,3.975,1.432,1.988-1.432,3.976-1.432,1.991,1.432,3.982,1.432,1.991-1.432,3.982-1.432" fill="none" stroke="#4a4a4a" stroke-linecap="round" stroke-linejoin="round" stroke-width="2"/>
        <path d="M33.047,29.695c1.988,0,1.988,1.432,3.975,1.432s1.987-1.432,3.974-1.432,1.987,1.432,3.975,1.432,1.988-1.432,3.976-1.432,1.991,1.432,3.982,1.432,1.991-1.432,3.982-1.432" fill="none" stroke="#4a4a4a" stroke-linecap="round" stroke-linejoin="round" stroke-width="2"/>
        <path d="M12.541,37.357c1.208,0,1.208.871,2.416.871s1.21-.871,2.419-.871,1.21.871,2.419.871,1.21-.871,2.42-.871,1.212.871,2.424.871,1.212-.871,2.424-.871" fill="none" stroke="#4a4a4a" stroke-linecap="round" stroke-linejoin="round" stroke-width="2"/>
        <path d="M70.399,39.571c1.208,0,1.208.871,2.416.871s1.21-.871,2.419-.871,1.21.871,2.419.871,1.21-.871,2.42-.871,1.212.871,2.424.871,1.212-.871,2.424-.871" fill="none" stroke="#4a4a4a" stroke-linecap="round" stroke-linejoin="round" stroke-width="2"/>
        <path d="M52.139,23.389c1.208,0,1.208.871,2.416.871s1.21-.871,2.419-.871,1.21.871,2.419.871,1.21-.871,2.42-.871,1.212.871,2.424.871,1.212-.871,2.424-.871" fill="none" stroke="#4a4a4a" stroke-linecap="round" stroke-linejoin="round" stroke-width="2"/>
        <line x1="31.257" y1="23.881" x2="31.864" y2="24.665" fill="none" stroke="#4a4a4a" stroke-linecap="round" stroke-linejoin="round" stroke-width="2"/>
        <line x1="36.15" y1="23.881" x2="36.756" y2="24.665" fill="none" stroke="#4a4a4a" stroke-linecap="round" stroke-linejoin="round" stroke-width="2"/>
        <line x1="95.162" y1="36.389" x2="95.769" y2="37.174" fill="none" stroke="#4a4a4a" stroke-linecap="round" stroke-linejoin="round" stroke-width="2"/>
        <line x1="114.117" y1="31.73" x2="114.724" y2="32.514" fill="none" stroke="#4a4a4a" stroke-linecap="round" stroke-linejoin="round" stroke-width="2"/>
        <line x1="118.131" y1="34.58" x2="118.738" y2="35.364" fill="none" stroke="#4a4a4a" stroke-linecap="round" stroke-linejoin="round" stroke-width="2"/>
        <line x1="121.063" y1="31.337" x2="121.669" y2="32.122" fill="none" stroke="#4a4a4a" stroke-linecap="round" stroke-linejoin="round" stroke-width="2"/>
        <line x1="61.608" y1="36.389" x2="62.215" y2="37.174" fill="none" stroke="#4a4a4a" stroke-linecap="round" stroke-linejoin="round" stroke-width="2"/>
        <line x1="54.271" y1="36.438" x2="54.878" y2="37.223" fill="none" stroke="#4a4a4a" stroke-linecap="round" stroke-linejoin="round" stroke-width="2"/>
        <line x1="38.397" y1="39.223" x2="39.004" y2="40.007" fill="none" stroke="#4a4a4a" stroke-linecap="round" stroke-linejoin="round" stroke-width="2"/>
        <line x1="59.097" y1="40.571" x2="59.704" y2="41.355" fill="none" stroke="#4a4a4a" stroke-linecap="round" stroke-linejoin="round" stroke-width="2"/>
        <line x1="93.878" y1="25.031" x2="94.485" y2="25.815" fill="none" stroke="#4a4a4a" stroke-linecap="round" stroke-linejoin="round" stroke-width="2"/>
        <line x1="97.682" y1="23.432" x2="98.289" y2="24.217" fill="none" stroke="#4a4a4a" stroke-linecap="round" stroke-linejoin="round" stroke-width="2"/>
      </g>
    </g>
  </g>
</svg>