<?xml version="1.0" encoding="UTF-8"?>
<svg id="b" data-name="Layer 2" xmlns="http://www.w3.org/2000/svg" width="115.618" height="38.882" viewBox="0 0 115.618 38.882">
  <g id="c" data-name="R3_Pool Icon_Medium_Gray">
    <g>
      <path d="M81.329,12.474c-2.614,0-5.157.12-7.595.346-2.096.194-4.116.467-6.038.811-1.474.263-2.89.568-4.24.91-1.241.315-2.425.661-3.546,1.036-1.519.508-2.921,1.07-4.189,1.677-4.778,2.288-12.539,3.369-19.569,2.341-2.81-.411-5.848-.635-9.019-.635-12.466,0-22.885,3.461-25.496,8.091,2.799,5.535,15.753,12.205,54.559,10.584,28.331-1.184,54.241-5.861,57.954-14.642-2.65-6.948-16.427-10.518-32.82-10.518Z" fill="#d5d5d5" stroke-width="0"/>
      <path d="M81.329,7.724c-2.614,0-5.157.12-7.595.346-2.096.194-4.116.467-6.038.811-1.474.263-2.89.568-4.24.91-1.241.315-2.425.661-3.546,1.036-1.519.508-2.921,1.07-4.189,1.677-4.778,2.288-12.539,3.369-19.569,2.341-2.81-.411-5.848-.635-9.019-.635C12.7,14.209,1,18.847,1,24.569s10.311,14.941,55.195,13.066c30.485-1.274,58.184-6.589,58.421-16.714.204-8.711-14.903-13.197-33.287-13.197Z" fill="none" stroke="#4a4a4a" stroke-linecap="round" stroke-linejoin="round" stroke-width="2"/>
      <path d="M32.521,19.18c-1.738-.145-3.541-.221-5.388-.221-12.426,0-22.826,3.438-25.478,8.046" fill="none" stroke="#4a4a4a" stroke-linecap="round" stroke-linejoin="round" stroke-width="2"/>
      <path d="M59.97,15.557c-1.542.514-2.964,1.082-4.249,1.697-4.778,2.288-12.539,3.369-19.569,2.341" fill="none" stroke="#4a4a4a" stroke-linecap="round" stroke-linejoin="round" stroke-width="2"/>
      <path d="M114.156,22.982c-2.657-6.944-16.44-10.507-32.827-10.507-2.614,0-5.157.12-7.595.346" fill="none" stroke="#4a4a4a" stroke-linecap="round" stroke-linejoin="round" stroke-width="2"/>
      <path d="M51.991,13.88v-4.667c0-2.237,1.814-4.051,4.051-4.051h0c2.237,0,4.051,1.814,4.051,4.051v12.042" fill="none" stroke="#4a4a4a" stroke-linecap="round" stroke-linejoin="round" stroke-width="2"/>
      <path d="M63.311,9.718v-4.667c0-2.237,1.814-4.051,4.051-4.051h0c2.237,0,4.051,1.814,4.051,4.051v12.042" fill="none" stroke="#4a4a4a" stroke-linecap="round" stroke-linejoin="round" stroke-width="2"/>
      <line x1="60.093" y1="13.832" x2="71.413" y2="10.753" fill="none" stroke="#4a4a4a" stroke-linecap="round" stroke-linejoin="round" stroke-width="2"/>
      <line x1="60.093" y1="17.728" x2="71.413" y2="14.648" fill="none" stroke="#4a4a4a" stroke-linecap="round" stroke-linejoin="round" stroke-width="2"/>
      <path d="M74.636,25.968c1.549,0,1.549,1.117,3.097,1.117s1.55-1.117,3.101-1.117,1.551,1.117,3.101,1.117,1.551-1.117,3.102-1.117,1.554,1.117,3.107,1.117,1.554-1.117,3.107-1.117" fill="none" stroke="#4a4a4a" stroke-linecap="round" stroke-linejoin="round" stroke-width="2"/>
      <path d="M32.843,29.02c1.549,0,1.549,1.117,3.097,1.117s1.55-1.117,3.101-1.117,1.551,1.117,3.101,1.117,1.551-1.117,3.102-1.117,1.554,1.117,3.107,1.117,1.554-1.117,3.107-1.117" fill="none" stroke="#4a4a4a" stroke-linecap="round" stroke-linejoin="round" stroke-width="2"/>
      <path d="M11.423,26.937c.942,0,.942.68,1.885.68s.944-.68,1.887-.68.942.68,1.884.68.944-.68,1.889-.68.946.68,1.892.68.946-.68,1.892-.68" fill="none" stroke="#4a4a4a" stroke-linecap="round" stroke-linejoin="round" stroke-width="2"/>
      <path d="M52.493,21.811c.942,0,.942.68,1.885.68s.944-.68,1.887-.68.942.68,1.884.68.944-.68,1.889-.68.946.68,1.892.68.946-.68,1.892-.68" fill="none" stroke="#4a4a4a" stroke-linecap="round" stroke-linejoin="round" stroke-width="2"/>
      <path d="M60.451,31.298c.942,0,.942.68,1.885.68s.944-.68,1.887-.68.942.68,1.884.68.944-.68,1.889-.68.946.68,1.892.68.946-.68,1.892-.68" fill="none" stroke="#4a4a4a" stroke-linecap="round" stroke-linejoin="round" stroke-width="2"/>
      <path d="M90.795,18.619c.942,0,.942.68,1.885.68s.944-.68,1.887-.68.942.68,1.884.68.944-.68,1.889-.68.946.68,1.892.68.946-.68,1.892-.68" fill="none" stroke="#4a4a4a" stroke-linecap="round" stroke-linejoin="round" stroke-width="2"/>
      <g>
        <path d="M83.943,14.5c-7.995,0-14.477,3.425-14.477,7.651s6.481,7.651,14.477,7.651,14.477-3.425,14.477-7.651-6.481-7.651-14.477-7.651ZM83.943,22.151c-2.613,0-4.732-.574-4.732-1.283s2.118-1.283,4.732-1.283,4.732.574,4.732,1.283-2.118,1.283-4.732,1.283Z" fill="#fff" stroke-width="0"/>
        <path d="M83.943,14.5c-7.995,0-14.477,3.425-14.477,7.651s6.481,7.651,14.477,7.651,14.477-3.425,14.477-7.651-6.481-7.651-14.477-7.651ZM83.943,22.151c-2.613,0-4.732-.574-4.732-1.283s2.118-1.283,4.732-1.283,4.732.574,4.732,1.283-2.118,1.283-4.732,1.283Z" fill="none" stroke="#4a4a4a" stroke-linecap="round" stroke-linejoin="round" stroke-width="2"/>
        <path d="M80.591,19.963s-1.379-3.008-7.796-2.692" fill="none" stroke="#4a4a4a" stroke-linecap="round" stroke-linejoin="round" stroke-width="2"/>
        <path d="M88.675,20.868s1.4-2.462,6.417-3.598" fill="none" stroke="#4a4a4a" stroke-linecap="round" stroke-linejoin="round" stroke-width="2"/>
        <path d="M83.652,22.148s-3.429,1.858-4.44,7.236" fill="none" stroke="#4a4a4a" stroke-linecap="round" stroke-linejoin="round" stroke-width="2"/>
      </g>
    </g>
  </g>
</svg>