<?xml version="1.0" encoding="UTF-8"?>
<svg id="b" data-name="Layer 2" xmlns="http://www.w3.org/2000/svg" width="142.439" height="78.679" viewBox="0 0 142.439 78.679">
  <g id="c" data-name="R3_Pool Icon_Thank You">
    <g>
      <g>
        <polygon points="110.313 28.539 93.186 30.305 78.221 25.053 95.348 23.287 110.313 28.539" fill="#fff" stroke-width="0"/>
        <polygon points="95.348 23.287 78.221 25.053 69.074 9.468 86.201 7.702 95.348 23.287" fill="#fff" stroke-width="0"/>
        <polygon points="110.313 28.539 93.186 30.305 78.221 25.053 95.348 23.287 110.313 28.539" fill="none" stroke="#4a4a4a" stroke-linecap="round" stroke-linejoin="round" stroke-width="2"/>
        <polygon points="95.348 23.287 78.221 25.053 69.074 9.468 86.201 7.702 95.348 23.287" fill="none" stroke="#4a4a4a" stroke-linecap="round" stroke-linejoin="round" stroke-width="2"/>
        <line x1="93.186" y1="30.305" x2="93.757" y2="35.842" fill="none" stroke="#4a4a4a" stroke-linecap="round" stroke-linejoin="round" stroke-width="2"/>
        <line x1="78.221" y1="25.053" x2="78.792" y2="30.591" fill="none" stroke="#4a4a4a" stroke-linecap="round" stroke-linejoin="round" stroke-width="2"/>
        <line x1="110.313" y1="28.539" x2="110.884" y2="34.076" fill="none" stroke="#4a4a4a" stroke-linecap="round" stroke-linejoin="round" stroke-width="2"/>
        <line x1="71.085" y1="12.894" x2="87.941" y2="11.156" fill="none" stroke="#4a4a4a" stroke-linecap="round" stroke-linejoin="round" stroke-width="2"/>
        <line x1="73.783" y1="17.247" x2="90.639" y2="15.509" fill="none" stroke="#4a4a4a" stroke-linecap="round" stroke-linejoin="round" stroke-width="2"/>
        <line x1="76.481" y1="21.599" x2="93.337" y2="19.861" fill="none" stroke="#4a4a4a" stroke-linecap="round" stroke-linejoin="round" stroke-width="2"/>
      </g>
      <g>
        <path d="M52.874,6.947c.619.847.985,1.891.985,3.02,0,2.828-2.292,5.12-5.12,5.12s-5.12-2.292-5.12-5.12,2.292-5.12,5.12-5.12" fill="none" stroke="#4a4a4a" stroke-linecap="round" stroke-linejoin="round" stroke-width="2"/>
        <path d="M58.823,1c2.087,13.565-6.391,16.043-6.391,16.043v6.378" fill="none" stroke="#4a4a4a" stroke-linecap="round" stroke-linejoin="round" stroke-width="2"/>
        <path d="M44.621,22.326v-5.087s-3.945-.389-5.88,3.508c-1.509,3.04-1.1,5.395-.315,7.593" fill="none" stroke="#4a4a4a" stroke-linecap="round" stroke-linejoin="round" stroke-width="2"/>
        <polyline points="48.795 28.066 48.795 32.761 54.371 32.761 52.969 24.544 44.151 24.544 43.108 32.761 48.739 32.761" fill="none" stroke="#4a4a4a" stroke-linecap="round" stroke-linejoin="round" stroke-width="2"/>
        <polyline points="49.956 32.761 49.956 42.544 55.238 42.544 52.969 40.147 52.969 32.761" fill="none" stroke="#4a4a4a" stroke-linecap="round" stroke-linejoin="round" stroke-width="2"/>
        <polyline points="46.956 32.761 46.956 42.544 41.673 42.544 43.942 40.147 43.942 32.761" fill="none" stroke="#4a4a4a" stroke-linecap="round" stroke-linejoin="round" stroke-width="2"/>
        <path d="M50.158,10.84c0,.783-.635,1.418-1.418,1.418s-1.418-.635-1.418-1.418" fill="none" stroke="#4a4a4a" stroke-linecap="round" stroke-linejoin="round"/>
        <circle cx="47.412" cy="8.555" r=".091" fill="none" stroke="#4a4a4a" stroke-linecap="round" stroke-linejoin="round"/>
        <circle cx="49.968" cy="8.555" r=".091" fill="none" stroke="#4a4a4a" stroke-linecap="round" stroke-linejoin="round"/>
        <path d="M46.603,5.319s-.756-.765-2.983-1.808" fill="none" stroke="#4a4a4a" stroke-linecap="round" stroke-linejoin="round" stroke-width="2"/>
        <path d="M48.739,4.848s-.545-1.989-1.784-3.032" fill="none" stroke="#4a4a4a" stroke-linecap="round" stroke-linejoin="round" stroke-width="2"/>
        <path d="M50.878,5.319s.704-1.809,1.554-2.983" fill="none" stroke="#4a4a4a" stroke-linecap="round" stroke-linejoin="round" stroke-width="2"/>
      </g>
      <g>
        <path d="M100.291,46.275c-3.231,0-6.374.148-9.388.427-2.591.24-5.088.578-7.464,1.002-1.821.325-3.572.702-5.241,1.125-1.534.389-2.998.817-4.383,1.281-1.877.628-3.611,1.322-5.178,2.073-5.906,2.828-15.499,4.164-24.188,2.893-3.474-.508-7.228-.785-11.148-.785-15.408,0-28.288,4.278-31.515,10.001,3.46,6.841,19.471,15.087,67.438,13.083,35.018-1.463,67.044-7.244,71.634-18.098-3.275-8.589-20.305-13.001-40.567-13.001Z" fill="#2db0fb" stroke-width="0"/>
        <path d="M100.291,40.402c-3.231,0-6.374.148-9.388.427-2.591.24-5.088.578-7.464,1.002-1.821.325-3.572.702-5.241,1.125-1.533.389-2.997.817-4.383,1.281-1.877.628-3.61,1.322-5.178,2.073-5.906,2.828-15.499,4.164-24.188,2.893-3.474-.508-7.228-.785-11.148-.785-17.839,0-32.301,5.733-32.301,12.806s12.745,18.468,68.224,16.15c37.681-1.574,71.918-8.145,72.212-20.66.252-10.767-18.421-16.312-41.145-16.312Z" fill="none" stroke="#4a4a4a" stroke-linecap="round" stroke-linejoin="round" stroke-width="2"/>
        <path d="M39.962,54.563c-2.149-.179-4.377-.273-6.66-.273-15.359,0-28.215,4.25-31.492,9.945" fill="none" stroke="#4a4a4a" stroke-linecap="round" stroke-linejoin="round" stroke-width="2"/>
        <path d="M74.811,49.786c-1.906.635-4.586,1.635-6.174,2.396-5.906,2.828-15.499,4.164-24.188,2.893" fill="none" stroke="#4a4a4a" stroke-linecap="round" stroke-linejoin="round" stroke-width="2"/>
        <path d="M140.867,59.262c-3.284-8.583-20.321-12.988-40.576-12.988-3.231,0-6.377.112-9.388.427-2.216.232-5.455.669-5.455.669" fill="none" stroke="#4a4a4a" stroke-linecap="round" stroke-linejoin="round" stroke-width="2"/>
        <path d="M68.671,45.868v-3.537c0-1.696,1.375-3.07,3.07-3.07h0c1.696,0,3.07,1.375,3.07,3.07v11.713" fill="none" stroke="#4a4a4a" stroke-linecap="round" stroke-linejoin="round" stroke-width="2"/>
        <path d="M77.251,42.714v-3.537c0-1.696,1.375-3.07,3.07-3.07h0c1.696,0,3.07,1.375,3.07,3.07v11.713" fill="none" stroke="#4a4a4a" stroke-linecap="round" stroke-linejoin="round" stroke-width="2"/>
        <line x1="74.811" y1="47.442" x2="83.392" y2="45.107" fill="none" stroke="#4a4a4a" stroke-linecap="round" stroke-linejoin="round" stroke-width="2"/>
        <line x1="74.811" y1="51.119" x2="83.392" y2="48.785" fill="none" stroke="#4a4a4a" stroke-linecap="round" stroke-linejoin="round" stroke-width="2"/>
        <path d="M92.018,62.953c1.917,0,1.917,1.381,3.833,1.381s1.916-1.381,3.832-1.381,1.916,1.381,3.832,1.381,1.917-1.381,3.833-1.381,1.92,1.381,3.84,1.381,1.92-1.381,3.84-1.381" fill="none" stroke="#4a4a4a" stroke-linecap="round" stroke-linejoin="round" stroke-width="2"/>
        <path d="M40.359,66.726c1.917,0,1.917,1.381,3.833,1.381s1.916-1.381,3.832-1.381,1.916,1.381,3.832,1.381,1.917-1.381,3.833-1.381,1.92,1.381,3.84,1.381,1.92-1.381,3.84-1.381" fill="none" stroke="#4a4a4a" stroke-linecap="round" stroke-linejoin="round" stroke-width="2"/>
        <path d="M13.884,64.151c1.165,0,1.165.84,2.33.84s1.166-.84,2.333-.84,1.166.84,2.333.84,1.167-.84,2.333-.84,1.169.84,2.337.84,1.169-.84,2.337-.84" fill="none" stroke="#4a4a4a" stroke-linecap="round" stroke-linejoin="round" stroke-width="2"/>
        <path d="M64.648,57.815c1.165,0,1.165.84,2.33.84s1.166-.84,2.333-.84,1.166.84,2.333.84,1.167-.84,2.333-.84,1.169.84,2.337.84,1.169-.84,2.337-.84" fill="none" stroke="#4a4a4a" stroke-linecap="round" stroke-linejoin="round" stroke-width="2"/>
        <path d="M74.484,69.541c1.165,0,1.165.84,2.33.84s1.166-.84,2.333-.84,1.166.84,2.333.84,1.167-.84,2.333-.84,1.169.84,2.337.84,1.169-.84,2.337-.84" fill="none" stroke="#4a4a4a" stroke-linecap="round" stroke-linejoin="round" stroke-width="2"/>
        <path d="M111.992,53.87c1.165,0,1.165.84,2.33.84s1.166-.84,2.333-.84,1.166.84,2.333.84,1.167-.84,2.333-.84,1.169.84,2.337.84,1.169-.84,2.337-.84" fill="none" stroke="#4a4a4a" stroke-linecap="round" stroke-linejoin="round" stroke-width="2"/>
        <g>
          <path d="M103.145,49.359c-10.35,0-18.74,4.434-18.74,9.904s8.39,9.904,18.74,9.904,18.74-4.434,18.74-9.904-8.39-9.904-18.74-9.904ZM103.145,59.263c-3.383,0-6.125-.744-6.125-1.661s2.742-1.661,6.125-1.661,6.125.744,6.125,1.661-2.742,1.661-6.125,1.661Z" fill="#fff" stroke-width="0"/>
          <path d="M103.145,49.359c-10.35,0-18.74,4.434-18.74,9.904s8.39,9.904,18.74,9.904,18.74-4.434,18.74-9.904-8.39-9.904-18.74-9.904ZM103.145,59.263c-3.383,0-6.125-.744-6.125-1.661s2.742-1.661,6.125-1.661,6.125.744,6.125,1.661-2.742,1.661-6.125,1.661Z" fill="none" stroke="#4a4a4a" stroke-linecap="round" stroke-linejoin="round" stroke-width="2"/>
          <path d="M98.805,56.43s-1.785-3.894-10.092-3.485" fill="none" stroke="#4a4a4a" stroke-linecap="round" stroke-linejoin="round" stroke-width="2"/>
          <path d="M109.27,57.602s1.812-3.187,8.307-4.657" fill="none" stroke="#4a4a4a" stroke-linecap="round" stroke-linejoin="round" stroke-width="2"/>
          <path d="M102.768,59.258s-4.439,2.405-5.748,9.367" fill="none" stroke="#4a4a4a" stroke-linecap="round" stroke-linejoin="round" stroke-width="2"/>
        </g>
      </g>
    </g>
  </g>
</svg>