<?xml version="1.0" encoding="UTF-8"?>
<svg id="b" data-name="Layer 2" xmlns="http://www.w3.org/2000/svg" width="146.021" height="48.739" viewBox="0 0 146.021 48.739">
  <g id="c" data-name="R3_Pool Icon_Pool with Spa_Colored">
    <g>
      <path d="M123.183,8.652s5.537,11.289,5.2,11.219-31.397,0-31.397,0l-1.498-11.219h27.695Z" fill="#2db0fb" stroke-width="0"/>
      <polygon points="93.336 28.978 90.847 8.652 22.837 8.652 4.72 47.739 141.301 47.739 132.605 28.978 93.336 28.978" fill="#2db0fb" stroke-width="0"/>
      <line x1="25.182" y1="5.313" x2="40.706" y2="5.313" fill="none" stroke="#4a4a4a" stroke-linecap="round" stroke-linejoin="round" stroke-width="2"/>
      <line x1="15.981" y1="15.418" x2="17.674" y2="11.767" fill="none" stroke="#4a4a4a" stroke-linecap="round" stroke-linejoin="round" stroke-width="2"/>
      <line x1="10.202" y1="27.887" x2="15.981" y2="15.418" fill="none" stroke="#4a4a4a" stroke-linecap="round" stroke-linejoin="round" stroke-width="2"/>
      <polyline points="44.749 5.313 125.356 5.313 145.021 47.739 1 47.739 8.746 31.027" fill="none" stroke="#4a4a4a" stroke-linecap="round" stroke-linejoin="round" stroke-width="2"/>
      <polyline points="141.301 47.739 132.605 28.978 93.336 28.978" fill="none" stroke="#4a4a4a" stroke-linecap="round" stroke-linejoin="round" stroke-width="2"/>
      <polyline points="95.489 8.652 123.183 8.652 128.383 19.87" fill="none" stroke="#4a4a4a" stroke-linecap="round" stroke-linejoin="round" stroke-width="2"/>
      <line x1="22.837" y1="8.652" x2="90.847" y2="8.652" fill="none" stroke="#4a4a4a" stroke-linecap="round" stroke-linejoin="round" stroke-width="2"/>
      <line x1="9.727" y1="36.936" x2="22.837" y2="8.652" fill="none" stroke="#4a4a4a" stroke-linecap="round" stroke-linejoin="round" stroke-width="2"/>
      <line x1="4.72" y1="47.739" x2="8.104" y2="40.438" fill="none" stroke="#4a4a4a" stroke-linecap="round" stroke-linejoin="round" stroke-width="2"/>
      <path d="M13.301,21.199v-8.864c0-2.073,1.681-3.754,3.754-3.754h0c2.073,0,3.754,1.681,3.754,3.754v11.008" fill="none" stroke="#4a4a4a" stroke-linecap="round" stroke-linejoin="round" stroke-width="2"/>
      <path d="M17.674,8.633v-3.879c0-2.073,1.681-3.754,3.754-3.754h0c2.073,0,3.754,1.681,3.754,3.754v11.008" fill="none" stroke="#4a4a4a" stroke-linecap="round" stroke-linejoin="round" stroke-width="2"/>
      <path d="M101.748,39.722c1.988,0,1.988,1.432,3.975,1.432s1.987-1.432,3.974-1.432,1.987,1.432,3.975,1.432,1.988-1.432,3.976-1.432,1.991,1.432,3.982,1.432,1.991-1.432,3.982-1.432" fill="none" stroke="#4a4a4a" stroke-linecap="round" stroke-linejoin="round" stroke-width="2"/>
      <path d="M33.314,29.814c1.988,0,1.988,1.432,3.975,1.432s1.987-1.432,3.974-1.432,1.987,1.432,3.975,1.432,1.988-1.432,3.976-1.432,1.991,1.432,3.982,1.432,1.991-1.432,3.982-1.432" fill="none" stroke="#4a4a4a" stroke-linecap="round" stroke-linejoin="round" stroke-width="2"/>
      <path d="M18.547,23.929c1.208,0,1.208.871,2.416.871s1.21-.871,2.419-.871,1.21.871,2.419.871,1.21-.871,2.42-.871,1.212.871,2.424.871,1.212-.871,2.424-.871" fill="none" stroke="#4a4a4a" stroke-linecap="round" stroke-linejoin="round" stroke-width="2"/>
      <path d="M12.808,37.476c1.208,0,1.208.871,2.416.871s1.21-.871,2.419-.871,1.21.871,2.419.871,1.21-.871,2.42-.871,1.212.871,2.424.871,1.212-.871,2.424-.871" fill="none" stroke="#4a4a4a" stroke-linecap="round" stroke-linejoin="round" stroke-width="2"/>
      <path d="M70.666,39.69c1.208,0,1.208.871,2.416.871s1.21-.871,2.419-.871,1.21.871,2.419.871,1.21-.871,2.42-.871,1.212.871,2.424.871,1.212-.871,2.424-.871" fill="none" stroke="#4a4a4a" stroke-linecap="round" stroke-linejoin="round" stroke-width="2"/>
      <path d="M100.672,12.598c1.208,0,1.208.871,2.416.871s1.21-.871,2.419-.871,1.21.871,2.419.871,1.21-.871,2.42-.871,1.212.871,2.424.871,1.212-.871,2.424-.871" fill="none" stroke="#4a4a4a" stroke-linecap="round" stroke-linejoin="round" stroke-width="2"/>
      <path d="M105.032,15.77c1.208,0,1.208.871,2.416.871s1.21-.871,2.419-.871,1.21.871,2.419.871,1.21-.871,2.42-.871,1.212.871,2.424.871,1.212-.871,2.424-.871" fill="none" stroke="#4a4a4a" stroke-linecap="round" stroke-linejoin="round" stroke-width="2"/>
      <path d="M48.303,16.689c1.208,0,1.208.871,2.416.871s1.21-.871,2.419-.871,1.21.871,2.419.871,1.21-.871,2.42-.871,1.212.871,2.424.871,1.212-.871,2.424-.871" fill="none" stroke="#4a4a4a" stroke-linecap="round" stroke-linejoin="round" stroke-width="2"/>
      <polyline points="90.402 5.313 91.598 14.275 92.945 24.364 134.186 24.364" fill="none" stroke="#4a4a4a" stroke-linecap="round" stroke-linejoin="round" stroke-width="2"/>
      <polyline points="96.008 12.541 96.986 19.87 124.739 19.87" fill="none" stroke="#4a4a4a" stroke-linecap="round" stroke-linejoin="round" stroke-width="2"/>
      <line x1="132.605" y1="28.978" x2="134.186" y2="24.364" fill="none" stroke="#4a4a4a" stroke-linecap="round" stroke-linejoin="round" stroke-width="2"/>
    </g>
  </g>
</svg>